<?xml version="1.0" encoding="utf-8"?>
<!-- Generator: Adobe Illustrator 16.0.0, SVG Export Plug-In . SVG Version: 6.00 Build 0)  -->
<!DOCTYPE svg PUBLIC "-//W3C//DTD SVG 1.1//EN" "http://www.w3.org/Graphics/SVG/1.1/DTD/svg11.dtd">
<svg version="1.1" id="图层_1" xmlns="http://www.w3.org/2000/svg" xmlns:xlink="http://www.w3.org/1999/xlink" x="0px" y="0px"
	 width="1000px" height="1000px" viewBox="0 0 1000 1000" enable-background="new 0 0 1000 1000" xml:space="preserve">
<g>
	<g>
		<path fill-rule="evenodd" clip-rule="evenodd" d="M947.948,481.075c0.298,0.072,0.545,0.342,0.827,0.501
			c2.219,1.247,4.585,1.568,7.081,1.157c0.714-0.118,1.462-0.278,2.164-0.184c5.375,0.72,10.326-0.547,15.022-3.087
			c0-0.163,0-0.327,0-0.49c-1.53-0.317-2.997-0.358-4.465,0.426c-1.482,0.792-3.035,0.822-4.703,0.271
			c-1.528-0.504-3.408-1.271-4.734-0.801c-3.869,1.373-7.608-0.262-11.386,0.084c-1.086,0.099-2.456-0.181-2.493-1.392
			c-0.045-1.44,1.453-1.285,2.448-1.252c2.926,0.095,5.848,0.335,8.775,0.452c1.763,0.071,3.259-0.53,4.409-2.037
			c-1.498-0.897-2.983-1.125-4.565-1.156c-2.762-0.054-5.521,0.645-8.281,0.042c-0.435-0.095-1.07,0.229-1.265-0.39
			c-0.202-0.648,0.338-1.063,0.765-1.404c1.501-1.194,3.267-0.715,4.947-0.68c2.177,0.045,4.426,0.553,6.396-1.333
			c-3.254-1.599-6.74-1.735-10.429-2.167c3.088-2.607,7.724-0.28,10.339-3.713c-1.167-0.8-2.381-0.947-3.584-1.067
			c-1.691-0.17-3.535,0.323-5.047-0.544c-1.721-0.987-3.253-1.67-4.949,0.233c-0.076-3.307,0.272-3.694,3.008-3.643
			c3.495,0.065,6.978,0.096,10.183-2.19c-2.901-1.533-6.239,0.026-9.064-1.783c1.84-1.435,3.855-1.19,5.739-1.512
			c1-0.17,2.438-0.395,2.268-1.724c-0.18-1.398-1.639-1.051-2.638-1.008c-1.123,0.048-2.231,0.533-3.37,0.208
			c-0.712-0.203-1.551-0.521-1.481-1.378c0.059-0.693,0.903-0.779,1.503-0.894c0.557-0.106,1.142-0.05,1.702-0.138
			c1.227-0.192,2.624-0.093,3.207-1.664c-1.406-0.438-2.757-0.86-4.347-1.355c1.123-0.9,2.039-1.636,3.084-2.474
			c-3.457-1.011-6.839-0.461-10.403-0.775c1.642-2.525,5.213-0.385,6.352-3.206c-1.059-0.638-2.19-0.371-3.324-0.328
			c-1.057,0.04-2.756,0.538-2.888-0.759c-0.113-1.102,1.661-1.234,2.735-1.497c0.545-0.134,1.136-0.073,1.703-0.122
			c1.415-0.121,2.669-0.581,3.656-1.778c-1.965-1.704-4.519-0.649-7.123-1.463c2.654-1.438,5.66-0.237,7.62-2.474
			c-1.61-1.619-3.554-0.722-5.335-0.837c-1.075-0.069-2.54,0.207-2.555-1.484c-0.015-1.781,1.169-1.925,2.696-1.791
			c3.651,0.321,7.324,0.503,10.921-0.512c0.511-0.144,0.979-0.445,1.466-0.674c-1.197-1.195-0.31-2.919-0.971-4.114
			c-0.474-0.856-1.888-0.818-2.919-0.908c-4.154-0.361-8.292-0.073-12.416,0.472c-1.537,0.827-3.741,1.028-3.001,3.79
			c0.244,0.909-0.94,0.682-1.472,0.792c-0.962,0.199-2.067,0.751-2.823-0.492c-0.248-0.408-0.564-0.774-0.85-1.16
			c-0.417-0.569-2.023-0.059-1.364-1.647c0.538-1.297,1.427-1.634,2.695-1.525c2.093,0.181,4.196,0.56,6.271-0.146
			c0.875-1.123,2.573-2.746,1.586-3.651c-1.932-1.77-4.311-3.831-7.001-3.756c-2.998,0.083-5.989,0.006-8.983,0.024
			c-2.381,0.015-3.396,1.369-2.792,3.665c0.777,2.955,2.817,4.221,6.017,4.062c-1.325,2.421-3.361,2.544-5.529,2.547
			c-2.089,0.002-1.765-1.815-2.25-2.914c-0.617-1.398-0.901-2.945-1.313-4.433c-1.147-4.136,1.592-7.753,5.815-8.032
			c4.642-0.308,9.046-1.488,12.212-5.233c1.025-1.212,1.964-2.715,0.667-4.421c-1.246-1.642-2.781-1.632-4.582-1.026
			c-3.074,1.035-6.021,2.436-9.288,2.938c-3.716,0.571-3.938,1.058-2.869,4.704c0.403,1.375-0.272,2.097-1.358,2.763
			c-1.157,0.71-1.768,0.196-2.383-0.729c-2.379-3.582-3.667-7.418-2.894-11.775c0.212-1.192,0.563-2.066,2.017-2.318
			c1.909-0.331,3.415-1.473,4.506-3.104c0.492-0.738,0.836-1.549-0.26-1.995c-1.77-0.721-3.557-1.724-5.398-1.878
			c-3.482-0.292-7.019-0.222-10.514-0.007c-2.893,0.177-4.063,2.925-2.545,5.413c0.276,0.452,1.053,0.582,0.838,1.497
			c-0.243,0.035-0.533,0.097-0.826,0.115c-2.763,0.167-5.527,0.308-8.289,0.494c-2.477,0.167-5.154,2.059-4.663,3.467
			c0.719,2.062,2.638,2.685,4.694,2.803c0.325,0.019,0.654,0.022,0.979,0c1.379-0.097,2.764-0.159,4.135-0.32
			c5.239-0.615,9.317,1.572,12.869,5.176c1.402,1.423,0.859,1.973-0.797,2.202c-0.806,0.111-1.616,0.191-2.418,0.326
			c-4.526,0.755-8.827,2.139-12.879,4.351c-1.528,0.835-1.153,1.509-0.154,2.277c1.828,1.402,3.937,1.313,6.077,1.028
			c2.686-0.357,5.355-0.553,7.893,1.563c-4.846,2.14-9.435,3.563-14.216,0.385c-1.023-0.68-2.193-1.039-3.398-1.305
			c-3.753-0.828-7.463,0.003-11.188,0.238c-2.007,0.126-4.021,0.495-6.502-0.028c0.698-0.394,0.946-0.589,1.229-0.685
			c1.449-0.488,2.911,0.091,4.369-0.019c0.671-0.05,1.491-0.134,1.693-0.729c0.276-0.815-0.674-0.992-1.196-1.25
			c-1.527-0.755-3.101-1.417-4.86-2.206c2.371-0.665,4.635,0.489,7.027-0.836c-5.283-3.168-10.553-4.034-16.189-2.575
			c-0.48,0.124-1.285,0.202-1.113,1.007c0.166,0.777,0.408,1.667,1.422,1.741c1.056,0.076,2.12,0.016,3.181,0.03
			c0.721,0.009,1.762-0.121,1.817,0.758c0.066,1.016-1.076,1.107-1.823,1.152c-1.461,0.086-2.935-0.061-4.399-0.015
			c-0.681,0.021-1.737-0.275-1.928,0.562c-0.232,1.024,0.79,1.522,1.596,1.867c0.66,0.283,1.413,0.411,2.137,0.47
			c1.334,0.107,2.656,0.203,3.969,0.822c-1.297,1.763-3.017,1.533-4.535,1.084c-1.394-0.412-2.739-0.296-4.105-0.29
			c-0.436,0.002-1.083,0.279-1.254,0.62c-0.226,0.455,0.317,0.854,0.689,1.171c1.922,1.636,4.177,2.481,6.653,2.808
			c0.515,0.068,1.287-0.221,1.375,0.596c0.076,0.711-0.462,1.207-1.077,1.489c-0.739,0.338-1.51,0.545-2.355,0.55
			c-1.465,0.01-2.938,0.06-4.389,0.243c-0.659,0.083-1.706,0.053-1.773,0.956c-0.065,0.869,0.987,0.919,1.572,1.308
			c2.04,1.357,4.382,0.262,6.801,0.722c-1.114,1.666-2.588,1.941-4.145,1.964c-2.366,0.034-4.732-0.013-7.099,0.024
			c-0.663,0.01-1.928-0.021-1.374,1.003c1.121,2.077-0.41,1.535-1.334,1.583c-1.138,0.059-2.29-0.06-3.338,0.544
			c-0.416,0.24-0.846,0.382-0.725,1.055c0.314,1.762,2.58,3.82,4.467,4.157c1.027,0.183,2.361-0.295,3.124,1.365
			c-2.612,0-5.066,0-7.842,0c2.279,4.245,6.898,1.409,9.701,3.979c-3.766,2.634-8.014,0.849-12.065,1.716
			c1.523,2.102,3.535,2.64,5.791,2.711c1.791,0.056,3.592,0.069,5.365,0.283c0.854,0.103,2.032,0.617,1.771,1.633
			c-0.307,1.192-1.653,1.155-2.436,0.575c-1.41-1.046-2.611-0.829-4.014-0.092c-0.609,0.32-1.42,0.337-2.143,0.35
			c-2.244,0.041-4.49,0.015-7.104,0.015c0.978,1.87,2.109,2.447,3.584,2.442c1.306-0.005,2.609-0.06,3.913-0.069
			c1.303-0.008,2.375,0.464,3.125,1.574c0.362,0.539,0.629,1.085-0.337,1.178c-1.923,0.185-3.978,0.856-5.751-0.067
			c-2.828-1.474-5.183-0.582-7.516,0.928c-0.437,0.283-1.326,0.59-0.778,1.477c0.39,0.631,1.04,0.867,1.702,0.65
			c1.377-0.451,2.687-0.482,4.032,0.124c1.515,0.682,3.087,0.79,4.769,0.641c1.382-0.122,2.99-0.717,4.413,0.755
			c-5.437,1.472-10.922,0.621-16.407,1.651c2.208,2.61,4.799,2.761,7.578,2.497c2.758-0.263,5.527-0.33,8.287,0.119
			c0.859,0.14,1.277,0.487,1.221,1.432c-0.048,0.814-0.37,1.107-1.165,1.203c-3.214,0.384-6.394,1.358-9.656,0.177
			c-0.894-0.323-1.979-0.523-2.846,0.095c-2.965,2.118-6.369,1.654-9.67,1.69c-1.729,0.02-3.913,0.785-4.438-2.044
			c-0.102-0.549-0.827-0.302-1.282-0.38c-5.676-0.978-4.882,0.516-5.703-5.933c-0.062-0.481,0.034-0.984-0.023-1.466
			c-0.238-1.959,0.062-3.367,2.581-3.143c0.649,0.058,1.368-0.437,2.023-0.746c0.524-0.248,0.994-0.632,0.914-1.306
			c-0.087-0.729-0.547-1.159-1.268-1.283c-0.563-0.097-1.128-0.168-1.692-0.243c-3.152-0.417-3.473-1.117-3.758-5.053
			c-0.198-2.729,1.238-3.132,3.301-3.103c1.502,0.022,2.019-0.833,1.945-2.134c-0.066-1.166-0.289-2.267-1.92-2.199
			c-0.886,0.037-1.798-0.089-2.669-0.278c-0.606-0.132-1.682,0.414-1.703-0.79c-0.019-1.084-0.37-2.369,0.946-3.042
			c0.502-0.256,1.063-0.451,1.619-0.539c2.252-0.355,1.959-1.743,1.272-3.196c-0.383-0.811-1.012-1.696-1.889-1.808
			c-2.498-0.317-3.259-2.301-4.332-4.058c-0.72-1.18-1.489-2.339-2.335-3.43c-1.1-1.418-2.208-2.72-1.734-4.777
			c0.235-1.025-0.243-2.331-1.113-2.839c-2.271-1.326-2.018-3.446-2.176-5.508c-0.143-1.868-0.222-3.758-0.578-5.59
			c-0.439-2.255-1.14-4.458-3.103-5.821c0,3.42,0.017,6.761-0.005,10.101c-0.017,2.593,0.066,5.176-3,6.458
			c-1.108,0.464-1.756,1.687-2.123,2.884c-0.297,0.964-0.792,1.747-1.513,2.456c-2.909,2.861-5.79,5.75-8.659,8.651
			c-0.59,0.596-1.135,1.076-2.077,1.041c-1.181-0.044-2.635-0.3-2.825,1.491c-0.211,1.988,1.291,2.134,2.702,2.352
			c0.699,0.108,1.476,0.082,1.596,1.132c0.213,1.848-1.007,3.638-2.885,3.781c-1.697,0.129-3.5,0.292-5.099-0.141
			c-1.555-0.423-2.879-0.281-4.259,0.236c-3.806,1.426-6.844,3.781-8.52,7.571c-0.536,1.21-1.275,1.985-2.471,2.485
			c-4.271,1.788-8.503,3.671-12.794,5.41c-1.428,0.579-2.9,1.302-4.781,0.983c2.656-4.787,4.698-9.735,10.032-12.07
			c1.412-0.619,2.491-1.878,3.232-3.259c0.538-1.002,1.799-2.104,0.893-3.238c-0.832-1.043-2.118-0.123-3.187,0.155
			c-0.796,0.207-1.533,0.904-1.883-0.704c-0.937-4.306-1.772-4.824-5.697-1.509c-0.37,0.313-0.703,0.688-0.979,1.087
			c-0.692,1.001-1.14,0.52-1.592-0.207c-1.341-2.152-2.587-2.156-3.967-0.019c-1.651,2.561-1.322,4.787,0.919,7.473
			c0.788,0.944,2.319,1.777,1.793,3.208c-0.634,1.724-1.303,4.025-2.947,4.612c-3.139,1.12-6.553,1.469-9.919,2.15
			c0.212-1.544,0.895-2.659,1.421-3.847c1.033-2.331,0.659-4.606-0.66-6.735c-0.639-1.03-1.522-1.572-2.606-0.647
			c-1.424,1.213-2.368,0.566-3.122-0.716c-0.663-1.13-1.671-1.684-2.847-1.426c-1.482,0.325-1.206,1.688-1.252,2.816
			c-0.104,2.565-0.714,2.909-2.856,1.531c-0.753-0.485-1.585-0.776-2.267-0.367c-0.683,0.41-0.331,1.35-0.29,2.057
			c0.13,2.199,1.532,3.682,2.939,5.183c2.703,2.881,2.655,3.626-0.252,6.507c-1.021-1.699-1.021-1.699-2.602-2.125
			c-4.536-1.226-4.507-1.206-1.813-5.167c0.546-0.803,1.505-1.892,0.367-2.793c-0.973-0.77-2.186-0.524-3.079,0.44
			c-0.657,0.708-1.343,1.177-2.39,0.694c0.672-1.656,1.81-2.885,3.306-3.792c1.204-0.73,2.273-1.6,2.982-2.831
			c0.265-0.46,0.826-0.916,0.45-1.539c-0.425-0.705-1.223-0.588-1.766-0.387c-2.512,0.933-3.113,0.175-2.148-2.217
			c0.204-0.506,0.444-1.055-0.112-1.566c-0.628-0.574-1.206-0.245-1.792,0.016c-1.113,0.495-2.244,0.964-3.316,1.537
			c-1.228,0.655-2.086,0.701-2.98-0.67c-1.353-2.073-4.094,0.627-5.7-1.433c-0.333-0.426-1.341,0.167-1.844,0.803
			c-0.605,0.766-1.252,1.503-1.927,2.208c-0.52,0.543-0.771,1.392-1.533,1.558c-1.91-1.826-1.686-3.431,0.098-5.16
			c1.035-1.004,1.761-2.335,2.573-3.555c0.379-0.568,1.147-1.142,0.744-1.88c-0.477-0.873-1.464-0.851-2.384-0.914
			c-0.79-0.054-1.714,0.778-2.32-0.003c-1.756-2.259-3.82-1.149-5.76-0.582c-1.035,0.303-1.601,0.462-2.353-0.604
			c-1.125-1.595-2.491-1.247-3.592,0.21c-1.024,1.357-1.192,2.987-1.394,4.611c-0.188,1.532-0.318,3.094-0.743,4.566
			c-0.292,1.007-0.563,2.766-1.68,2.605c-1.259-0.18-1.456-1.905-1.276-3.104c0.386-2.562,0.1-4.97,1.816-7.645
			c1.89-2.941,3.217-5.765,6.652-7.2c1.036-0.433,1.352-2.263,1.013-3.284c-0.366-1.101-1.825-0.716-2.819-0.472
			c-1.543,0.38-2.622,1.6-3.922,2.421c-1.326,0.837-2.139,0.977-2.556-0.884c-0.467-2.079-1.606-2.401-3.245-0.998
			c-0.542,0.465-1.02,1.076-1.343,1.713c-1.559,3.066-2.151,6.138,0.144,9.169c0.445,0.59,0.837,1.388,0.15,1.979
			c-0.6,0.516-1.215-0.143-1.7-0.473c-1.17-0.794-2.021-1.843-2.359-3.285c-0.521-2.231-0.612-4.525-1.017-6.76
			c-0.423-2.35,0.25-3.866,2.266-5.079c2.125-1.279,3.186-3.452,3.993-5.695c0.531-1.477,0.225-2.94-0.851-4.102
			c-1.069-1.155-1.942,0.163-2.768,0.505c-1.186,0.491-1.419,0.115-1.555-0.923c-0.181-1.403-0.575-3.166-1.807-3.522
			c-1.306-0.378-2.248,1.319-3.305,2.173c-0.125,0.101-0.245,0.224-0.327,0.361c-0.717,1.209-1.501,1.231-2.776,0.598
			c-1.914-0.95-2.831-0.304-3.167,1.824c-0.463,2.938,0.768,5.34,2.779,7.217c2.33,2.172,3.257,4.698,2.99,7.908
			c-2.753-0.74-4.827-2.386-6.337-4.673c-1.481-2.245-2.465-4.766-3.389-7.286c-1.096-2.991-0.888-5.74,1.696-8.004
			c1.34-1.174,1.555-2.736,1.417-4.463c-0.107-1.363-1.091-1.661-1.802-1.177c-3.517,2.391-2.979-0.457-3.258-2.368
			c-0.094-0.636-0.341-1.25-0.517-1.871c-3.109,0.735-4.798,1.812-5.979,4.208c-0.661,1.345-1.244,2.283-3.002,2.025
			c-1.394-0.205-1.98,0.488-1.735,2.069c0.565,3.642,2.71,6.059,6.352,6.804c0.771,0.158,1.631,0.052,2.06,0.999
			c0.897,1.985,1.872,3.939,1.931,6.476c-4.173-2.333-8.121-4.584-12.114-6.752c-1.366-0.742-2.128-1.489-2.235-3.294
			c-0.259-4.332-3.565-8.374-6.823-8.917c-1.195-0.199-2.455-0.37-2.033,1.56c0.452,2.07-0.776,1.808-1.922,1.29
			c-1.101-0.498-2.067-1.282-3.133-1.869c-1.287-0.709-3.014-0.939-3.834,0.04c-0.762,0.909,0.301,2.247,1.24,3.114
			c0.646,0.595,1.384,1.132,1.473,2.341c-1.441-0.019-2.858,0.032-4.161,0.692c3.15,4.04,7.488,6.412,12.463,6.09
			c3.662-0.237,6.696,0.907,9.636,2.743c2.556,1.596,5.089,3.229,7.609,4.878c9.002,5.893,16.947,12.967,23.688,21.364
			c0.408,0.508,1.663,1.099,0.713,1.917c-1.835,1.579-2.229,3.686-2.551,5.891c-1.217-0.035-2.084-0.591-2.84-1.377
			c-0.708-0.737-1.66-0.899-2.478-0.528c-0.795,0.361-0.813,1.348-0.818,2.154c-0.011,2.08,1.081,3.752,2.274,5.287
			c0.992,1.274,0.283,1.92-0.607,2.572c-1.283,0.939-1.425-0.258-1.717-1.019c-0.356-0.928-0.77-1.864-1.537-2.463
			c-1.224-0.957-1.654-1.914-1.006-3.466c0.326-0.782,0.577-2.098-0.509-2.581c-0.982-0.437-2.137-0.107-2.924,0.722
			c-0.747,0.787-1.479,1.441-2.824,1.254c0.227-0.854,0.425-1.602,0.628-2.37c-1.84-0.422-3.568-0.004-5.141,0.532
			c-5.382,1.835-5.972,1.679-5.771,7.799c0.058,1.746,0.224,3.537-0.955,5.233c-1.975-1.619-2.527-3.73-2.456-5.938
			c0.093-2.924,0.425-5.846,0.758-8.756c0.267-2.337,0.822-4.418,2.909-6.105c1.883-1.522,2.746-3.997,3.43-6.373
			c0.313-1.089,0.246-2.194-0.763-2.87c-1.059-0.709-1.925-0.241-2.748,0.662c-1.078,1.181-2.179,0.847-3.074-0.318
			c-0.344-0.448-0.6-0.968-0.848-1.479c-0.434-0.901-1.123-1.43-2.123-1.345c-1.066,0.091-1.768,0.701-2.115,1.748
			c-0.345,1.041-0.247,2.051-0.143,3.125c0.232,2.375,1.813,4.483,1.714,6.781c-0.158,3.656-1.319,7.181-2.438,10.676
			c-0.421,1.316-0.938,0.733-1.521,0.234c-1.325-1.136-2.303-2.528-2.94-4.146c-1.521-3.855-1.897-7.857-1.733-11.98
			c0.11-2.776,0.523-5.096,3.775-5.781c0.657-0.139,1.288-0.725,1.786-1.243c3.299-3.432,3.004-4.218-0.545-6.812
			c-1.206-0.881-2.216-1.676-2.917-3.021c-0.652-1.252-1.75-2.21-3.35-2.017c-1.494,0.18-2.051,1.421-2.169,2.614
			c-0.153,1.534-1.085,1.293-2.046,1.313c-2.488,0.051-3.354,1.668-2.004,3.827c0.602,0.963,1.364,1.826,2.04,2.745
			c0.485,0.658,0.904,1.328,0.845,2.221c-0.207,3.089-0.382,6.181-0.557,9.272c-0.074,1.307-0.63,1.243-1.562,0.665
			c-1.667-1.034-2.816-2.47-3.483-4.277c-0.902-2.444-1.851-4.86-3.182-7.112c-0.183-0.309-0.72-0.776-0.335-1.039
			c2.133-1.458,0.119-2.381-0.521-3.204c-0.993-1.274-1.382-2.285-0.077-3.524c0.404-0.384,0.612-0.968,0.992-1.386
			c1.748-1.926,1.484-3.974,0.479-6.119c-0.962-2.057-2.526-2.832-4.745-2.448c-0.923,0.159-1.785-0.161-2.538-0.675
			c-0.854-0.583-1.794-0.855-2.778-0.683c-1.57,0.275-2.295-0.138-2.078-1.877c0.242-1.944-0.801-2.52-2.604-2.208
			c-0.678,0.116-1.323,0.207-2.011-0.426c-2.437-2.243-3.651-2.131-5.717,0.504c-0.815,1.042-1.426,1.877-2.924,1.048
			c-0.943-0.522-2.022-1.118-3.119-0.003c-1.152,1.172-1.104,2.434-0.634,3.836c0.919,2.743,2.974,4.682,5.408,5.685
			c3.021,1.246,3.226,3.576,3.792,6.384c-1.141-0.39-1.989-0.624-2.792-0.967c-2.769-1.188-5.431-2.572-8.016-4.132
			c-1.313-0.791-1.694-1.531-1.342-3.104c0.683-3.033,0.032-3.819-2.955-3.741c-2.095,0.055-3.385-0.779-4.223-2.612
			c-0.481-1.052-1.316-1.66-2.541-1.476c-1.207,0.181-1.606,1.167-1.667,2.134c-0.146,2.323-1.074,3.027-3.28,2.053
			c-0.851-0.375-2.058-0.789-2.669,0.207c-0.537,0.876,0.08,1.931,0.646,2.709c0.759,1.043,1.983,1.845,2.049,3.239
			c0.063,1.333,0.722,1.675,1.888,2.017c9.298,2.724,18.233,6.357,26.914,10.683c14.471,7.21,26.232,17.467,35.396,30.751
			c2.377,3.445,1.586,5.127-2.605,5.486c-0.243,0.021-0.489,0.024-0.734,0.014c-4.478-0.188-8.966-0.257-13.431-0.614
			c-2.689-0.215-5.431-0.463-8.719-1.839c3.577-3.366,6.861-6.456,10.369-9.755c-0.723-0.06-1.046-0.148-1.349-0.103
			c-5.753,0.853-11.211,2.443-15.831,6.215c-0.913,0.746-1.766,1.627-3.168,1.627c-5.06,0.001-9.235-2.783-13.58-4.672
			c-2.879-1.253-6.396-1.881-8.496-4.738c-0.119-0.162-0.439-0.209-0.676-0.245c-2.541-0.389-4.774-1.93-7.551-1.644
			c-1.433,0.147-2.606-0.704-1.382-2.636c0.915-1.445,1.724-2.852,3.126-3.953c3.035-2.381,4.853-5.616,6.101-9.245
			c0.561-1.628,0.146-3.007-1.178-3.548c-4.692-1.916-9.635-2.758-14.685-2.009c-1.272,0.188-2.421,1.274-3.601,1.991
			c-0.483,0.293-0.893,0.668-0.819,1.366c0.486,4.678,0.348,9.469,1.676,13.992c0.679,2.313-0.312,3.813-1.853,4.074
			c-4.723,0.8-8.068,4.245-12.38,5.822c-4.417,1.615-8.626,3.785-13.272,4.793c-1.426,0.309-2.719,0.105-3.501-1.072
			c-0.918-1.383-2.229-1.79-3.672-2.102c-2.146-0.464-4.276-1.028-6.443-1.366c-3.298-0.515-6.575-1.361-10.047-1.186
			c0.579,1.816,1.928,2.253,3.306,2.398c2.134,0.225,3.386,1.227,3.81,3.362c0.199,1.002,0.646,1.956,0.987,2.955
			c-6.511,1.896-13.008,1.477-19.526,1.002c-2.893-0.21-5.34-0.78-6.681-3.779c-0.755-1.685-1.955-3.172-2.959-4.746
			c-0.576-0.904-1.234-1.699-2.298-2.093c-4.416-1.64-8.884-3.111-13.472-4.19c-0.683-0.161-1.419-0.097-2.305-0.146
			c0.658,2.283,1.997,3.945,3.907,4.627c2.24,0.8,1.957,2.568,2.48,4.179c0.644,1.985,0.336,3.233-1.942,3.501
			c0.488,0.942,1.038,1.615,1.779,1.921c4.203,1.74,7.044,5.149,10.162,8.209c5.693,5.587,12.184,8.684,20.446,7.509
			c4.179-0.594,8.447-0.462,12.67,0.28c1.369,0.241,1.925,0.738,2.11,2.104c0.328,2.417,0.681,4.861,1.369,7.191
			c0.555,1.878,0.104,2.33-1.755,2.482c-6.697,0.546-6.691,0.609-6.799,7.418c-0.004,0.245,0,0.49-0.001,0.734
			c-0.013,4.571-0.013,4.571-4.584,4.847c-0.244,0.015-0.489-0.001-0.734,0.009c-2.357,0.101-4.939-0.367-7.016,0.451
			c-2.724,1.071-5.217,0.814-7.867,0.446c-0.951-0.132-1.916-0.167-2.926-0.25c0.048,3.313,3.822,3.588,4.582,6.15
			c-7.418,3.287-20.805,4.658-28.761,3.067c-3.722-0.745-6.693-1.897-8.314-6c-1.733-4.386-4.078-5.144-8.514-4.419
			c-1.954,0.319-3.514,0.78-2.592,3.359c0.224,0.626,0.062,1.475-0.147,2.151c-0.386,1.245-0.126,2.068,0.906,2.953
			c5.139,4.396,10.207,8.875,15.28,13.347c1.214,1.069,2.525,1.489,4.188,1.56c8.381,0.355,16.752,0.912,25.131,1.301
			c1.246,0.059,1.689,0.625,1.545,1.599c-0.221,1.476,0.618,2.124,1.721,2.516c1.311,0.466,1.416,1.304,1.51,2.573
			c0.452,6.087-1.214,12.082-0.539,18.197c0.391,3.543-0.063,7.172,0.017,10.76c0.086,3.85-0.169,7.476-4.085,9.584
			c-0.208,0.112-0.225,0.234-0.04,0.383c0.345,0.325,0.742,0.202,1.145,0.157c2.901-0.32,3.459,0.352,2.613,3.22
			c-0.18,0.609-0.409,1.319-0.856,1.708c-0.848,0.739-0.888,1.511-0.819,2.556c0.104,1.578-0.404,3.068-1.678,4.151
			c-0.761,0.646-1.709,0.749-2.507,0.246c-0.924-0.582-0.176-1.228,0.147-1.861c0.74-1.449,0.296-2.3-1.364-1.973
			c-2.199,0.434-2.579-0.605-2.276-2.416c0.174-1.045,0.316-2.096,0.493-3.14c0.191-1.136,0.314-2.27-0.225-3.345
			c-0.171-0.342-0.352-0.809-0.857-0.722c-0.569,0.098-0.916,0.657-0.751,1.069c0.759,1.892,0.883,3.578-0.967,4.95
			c-0.113,0.085-0.013,0.625,0.133,0.867c1.077,1.792,0.043,2.434-1.488,2.876c-1.712,0.494-3.458,0.922-5.104,1.587
			c-1.644,0.662-2.163-0.063-2.169-1.594c-1.938,0.815-2.811,2.504-4.179,3.633c-0.833,0.688-1.833,1.317-2.888,0.891
			c-1.042-0.423-0.694-1.555-0.576-2.397c0.111-0.793-0.032-1.009-0.863-1.282c-3.586-1.184-7.437-1.502-10.827-3.326
			c-0.569-0.306-1.275-0.337-1.852,0.348c2.843,2.595,4.538,5.81,5.148,9.832c-2.17-0.991-3.604-2.504-4.744-4.283
			c-1.462-2.284-3.563-3.028-6.132-3.063c-0.06,0.932,0.381,1.453,0.735,1.975c1.674,2.467,4.27,3.996,6.295,6.117
			c1.52,1.59,1.701,2.9,0.149,4.579c-2.578,2.786-5.807,4.728-8.765,7.016c-1.45,1.121-2.687,2.372-3.527,3.984
			c-1.174,2.248-1.034,2.446,1.571,2.446c19.339,0.001,38.679-0.029,58.017,0.055c1.634,0.007,2.892-0.479,2.896-1.898
			c0.005-2.015,1.512-3.556,1.451-5.348c-0.068-2.03,0.477-4.226-0.687-6.129c-1.47-2.406-0.741-4.128,2.098-4.304
			c2.515-0.155,5.054,0.115,7.578,0.054c1.904-0.046,2.065,0.828,1.771,2.414c-0.816,4.402-1.487,8.832-2.263,13.243
			c-0.232,1.324-0.224,2.078,1.563,1.963c2.844-0.184,5.708-0.049,8.564-0.049c5.341,0,5.308-0.005,6.034-5.422
			c0.475-3.541,0.141-7.172,1.334-10.639c0.381-1.108,0.856-1.512,2.05-1.512c11.336-0.005,22.669,0.113,34,0.47
			c1.732,0.055,2.024,0.672,2.149,2.33c0.216,2.852-1.215,5.438-0.605,8.424c0.712,3.487,1.419,4.502,5.125,4.099
			c2.023-0.222,4.108-0.895,6.056-0.608c6.971,1.023,14.007,0.438,20.978,1.147c0.479,0.049,1.298-0.013,1.379,0.199
			c0.888,2.314,2.852,1.483,4.403,1.483c91.636,0.031,183.271,0.03,274.906,0.008c1.366-0.001,2.926,0.572,3.995-0.98
			c0.265-0.384,1.115-0.364,1.307,0.053c0.676,1.466,1.928,0.925,2.949,0.927c22.031,0.027,44.063,0.021,66.094,0.021
			c0.49,0,0.979,0.002,1.469-0.004c0.506-0.005,1.047-0.021,0.971-0.735c-0.179-1.655,0.408-3.228,0.481-4.852
			c0.059-1.278-0.438-1.873-1.861-1.784c-2.461,0.153-4.165-1.135-5.295-3.246c-1.093-2.039-0.394-3.761,1.146-5.359
			c-2.93-1.14-5.854-1.314-8.77-0.984c-3.835,0.435-7.659-0.087-11.426-0.352c-3.095-0.217-6.171-1.338-9.385-1.223
			c-0.446,0.017-1.053,0.243-1.314-0.288c-0.313-0.636,0.219-1.176,0.623-1.454c1.138-0.785,2.116-1.522,2.063-3.146
			c-0.021-0.597,0.745-1.229,1.443-0.967c0.979,0.368,0.617,1.18,0.238,1.832c-0.407,0.704-0.885,1.366-0.864,2.323
			c1.587,0.478,2.842-0.087,3.891-1.246c1.048-1.156,1.819-2.493,2.421-3.933c0.277-0.667,0.75-1.294,0.098-2.016
			c-0.594-0.655-1.256-0.601-2.006-0.341c-0.708,0.244-1.647,0.928-2.08-0.109c-0.352-0.842,0.167-1.809,0.946-2.343
			c1.002-0.685,2.128-1.182,3.159-1.827c0.482-0.303,1.151-0.476,0.566-1.452c-1.604-2.681-1.515-2.674,1.425-3.778
			c1.816-0.684,3.729-1.908,3.577-3.854c-0.116-1.499-2.344-1.617-3.795-2.016c-1.551-0.428-3.795,0.15-3.548-2.735
			c0.058-0.673-0.972-0.765-1.521-1.044c-2.28-1.154-2.355-1.647-0.243-3.297c2.395-1.869,3.292-5.301,6.558-6.261
			c0.081-0.023,0.146-0.306,0.122-0.452c-0.315-1.949,1.225-2.234,2.475-2.681c2.527-0.902,5.095-1.693,7.625-2.587
			c0.631-0.224,1.353-0.196,1.786-1.018c1.938-3.67,1.944-7.338,0.301-11.088c-0.489-1.115-0.832-2.297-1.351-3.396
			c-0.758-1.605-0.387-2.808,1.066-3.769c1.113-0.737,2.291-1.724,2.219-3.034c-0.163-2.983,1.021-5.587,1.882-8.278
			c0.576-1.798,0.063-2.661-1.763-2.623c-3.743,0.079-7.378-0.337-10.951-1.562c-1.729-0.593-2.812-2.147-2.257-3.944
			c0.704-2.278,1.637-4.896,0.226-6.855c-1.746-2.428-0.846-4.141,0.264-6.172c0.865-1.584,1.624-3.182,0.289-4.998
			c-0.686-0.933-1.813-2.396-0.949-3.215C944.841,480.327,946.586,480.748,947.948,481.075z M915.769,399.678
			c-0.816,1.128-1.896,0.251-2.778-0.156c-0.757-0.349-1.408-0.792-0.496-1.794c1.094-1.201,2.09-2.54,0.391-4.519
			C915.35,394.264,916.892,398.126,915.769,399.678z M611.198,405.165c1.104-0.072,0.784,1.023,0.993,1.309
			c0.427,1.023-0.055,1.127-0.589,1.111c-0.753-0.024-1.55-0.12-1.591-1.098C609.981,405.743,610.497,405.211,611.198,405.165z
			 M619.299,424.757c-4.289-0.896-9.026-6.776-9.837-12.209C614.186,413.849,619.926,419.366,619.299,424.757z M489.475,455.47
			c-1.101-0.219-2.102-0.526-1.566-2.243c0.212-0.381-0.516-1.681,0.867-1.538c1.688,0.174,1.447,1.627,1.557,2.804
			C490.394,455.149,490.315,455.637,489.475,455.47z M455.84,501.095c3.981-0.771,3.248,2.423,4.481,4.065
			C456.651,505.921,457.421,502.547,455.84,501.095z M488.052,585.821c-0.229,1.669-1.686,1.98-3.908,1.604
			c-0.294-0.104-2.228,0.35-2.088-0.794c0.207-1.694,2.069-2.275,3.771-2.302C486.863,584.313,488.241,584.452,488.052,585.821z
			 M481.083,583.621c1.536-3.124,3.755-4.354,7.583-4.208C487.521,580.949,482.878,583.525,481.083,583.621z M495.849,594.547
			c-0.456-0.011-1.079,0.041-1.025-0.628c0.023-0.283,0.469-0.676,0.789-0.758c0.53-0.135,0.833,0.304,1.023,0.748
			C496.651,594.488,496.255,594.558,495.849,594.547z M504.197,504.158c-0.32-0.234-0.604-0.774-0.19-1.001
			c0.86-0.47,1.712-0.275,2.393,0.53C505.821,504.625,505.074,504.804,504.197,504.158z M510.514,502.365
			c-0.375-0.122-0.771-0.344-0.593-0.835c0.174-0.481,0.655-0.359,1.014-0.314c0.342,0.044,0.802,0.06,0.783,0.616
			C511.404,502.223,511.043,502.537,510.514,502.365z M514.893,577.66c-0.493-0.123-0.814-0.51-0.855-1.062
			c-0.038-0.503,0.168-0.783,0.694-0.684c0.622,0.117,0.611,0.672,0.721,1.133C515.403,577.386,515.268,577.754,514.893,577.66z
			 M517.947,571.697c-0.521,1.401-1.194,2.805-3.355,2.743c0.682-1.232,1.306-2.222,1.773-3.279c0.172-0.39-0.025-0.943-0.071-1.692
			C517.555,569.977,518.377,570.542,517.947,571.697z M522.343,572.743c-1.602,1.166-2.13,2.688-2.136,4.682
			c-1.758-1.011-2.247-2.08-0.675-3.426c1.297-1.108,1.93-2.523,2.151-4.37C523.116,570.672,523.695,571.758,522.343,572.743z
			 M525.769,575.104c-0.04,0.8-0.168,1.594-0.279,2.578c-1.217-0.336-2.058-0.865-1.899-2.045c0.215-1.582,1.225-2.558,2.763-3.021
			C526.931,573.657,525.813,574.246,525.769,575.104z M528.321,532.66c-0.314,4.611-0.095,9.257-0.095,13.889
			c-0.331,0-0.662,0-0.994,0c0,4.803-0.067,9.605,0.029,14.406c0.046,2.265-0.645,3.351-3.108,3.37
			c-2.525,0.021-5.038,0.135-7.55-0.209c-0.889-0.122-1.438-0.362-1.473-1.48c-0.132-4.14-0.223-8.229,0.239-12.399
			c0.44-3.985-0.314-8.096-0.129-12.16c0.174-3.821,0.351-7.643,0.519-11.464c0.047-1.044,0.142-1.869,1.497-0.949
			c1.29,0.875,2.775,1.378,4.29,1.677c0.791,0.156,1.461,0.462,1.777,1.116c0.539,1.114,1.355,1.423,2.519,1.435
			C527.602,529.908,528.474,530.418,528.321,532.66z M528.707,456.896c-1.159-0.044-1.283-0.741-1.242-1.631
			c0.049-0.673-0.239-1.607,0.964-1.484c0.892,0.092,1.913,0.262,1.878,1.438C530.28,456.111,529.945,456.943,528.707,456.896z
			 M550.689,477.511c1.251,0.067,0.526,1.083,0.758,1.63c-0.142,0.486,0.29,1.319-0.653,1.258c-0.89-0.058-1.527-0.657-1.501-1.563
			C549.316,478.073,549.809,477.464,550.689,477.511z M542.239,484.599c0.14-0.69,0.776-0.999,1.424-1.136
			c0.46-0.098,0.871,0.147,0.728,0.636c-0.17,0.574-0.271,1.352-1.217,1.252C542.698,485.319,542.105,485.265,542.239,484.599z
			 M545.022,571.578c-0.46,1.188-1.147,2.241-2.834,2.333c0.356-1.112,0.662-1.993,0.92-2.889c0.146-0.505-0.009-1.272,0.895-1.049
			C544.804,570.172,545.345,570.743,545.022,571.578z M546.621,576.491c-0.565-0.025-0.55-0.445-0.552-0.842
			c-0.001-0.568,0.01-1.136,0.751-1.265c0.581,0.11,0.73,0.498,0.716,1.037C547.519,576.043,547.38,576.525,546.621,576.491z
			 M552.664,564.336c-2.928,0.447-5.821,0.419-8.745,0.058c-1.635-0.203-2.069-1.041-2.019-2.626
			c0.352-10.98,1.062-21.934,2.231-32.856c0.064-0.606-0.136-1.4,0.814-1.514c0.481-0.058,1.127-0.069,1.204,0.526
			c0.345,2.63,2.521,2.336,4.112,2.301c2.613-0.058,3.122,1.082,3.282,3.438c0.37,5.449,0.462,10.896,0.618,16.35
			c0,4.151-0.036,8.303,0.022,12.452C554.203,563.627,553.944,564.141,552.664,564.336z M561.71,484.378
			c-0.09,0.486-0.446,0.861-0.977,0.871c-0.45,0.009-0.768-0.356-0.783-0.751c-0.024-0.616,0.479-0.733,0.988-0.748
			C561.335,483.796,561.813,483.822,561.71,484.378z M560.689,479.462c-0.453,0-1.024,0.095-0.93-0.657
			c0.086-0.687,0.487-1.167,1.152-1.367c0.674-0.204,0.773,0.287,0.847,0.698C561.76,478.938,561.519,479.462,560.689,479.462z
			 M570.021,485.116c-0.5-0.018-1.239-0.121-1.092-0.933c0.142-0.772,0.694-1.244,1.479-1.365c0.801-0.124,0.907,0.441,0.902,0.386
			C571.44,484.832,570.792,485.143,570.021,485.116z M579.319,577.646c-0.016,0.042-0.602-0.043-0.854-0.187
			c-0.88-0.503-1.148-1.263-0.839-2.239c0.307-0.966,0.786-1.765,1.956-2.07c0.076,0.057,0.25,0.188,0.424,0.318
			C578.979,574.739,579.816,576.302,579.319,577.646z M587.673,564.628c-2.757,0.352-5.509,0.39-8.271,0.024
			c-1.054-0.14-1.515-0.499-1.517-1.688c-0.024-10.155-1.093-20.336,0.578-30.446c0.338-2.041-1.316-3.849-0.436-5.871
			c0.758-0.012,1.237,0.426,1.432,0.9c1.14,2.783,3.438,3.127,5.981,2.904c1.998-0.174,2.646,0.725,2.697,2.646
			c0.263,9.92,0.604,19.837,0.969,29.754C589.148,563.993,588.748,564.491,587.673,564.628z M616.379,453.521
			c0.321-0.048,0.682-0.011,0.749,0.333c0.056,0.278-0.057,0.626-0.625,0.685c-0.211,0.032-0.428-0.161-0.561-0.47
			C615.754,453.628,616.069,453.566,616.379,453.521z M593.885,477.558c-0.351,0.069-0.691-0.028-0.771-0.378
			c-0.102-0.451,0.104-0.792,0.635-0.741c0.313,0.03,0.634,0.112,0.718,0.505C594.491,477.354,594.22,477.492,593.885,477.558z
			 M598.227,484.354c-0.747,0.055-1.223-0.303-1.276-1.068c-0.027-0.389,0.051-0.83,0.591-0.824
			c0.722,0.007,1.133,0.444,1.331,0.875C598.925,484.037,598.681,484.321,598.227,484.354z M605.237,473.99
			c-0.029-0.566,0.229-0.898,0.843-0.851c0.431,0.032,0.799,0.192,0.8,0.675c0.003,0.67-0.427,1.009-1.054,1.022
			C605.288,474.847,605.258,474.375,605.237,473.99z M617.862,532.838c-0.173,7.089-0.218,14.183-0.17,21.273
			c0.014,2.13-0.764,2.65-2.745,2.355c-3.089-0.461-3.922,0.566-3.306,3.668c0.418,2.105,0.497,3.89-1.399,5.747
			c-1.53,1.5-1.243,4.146-0.043,6.052c1.008,1.599,1.193,2.935,0.14,4.446c-0.84,1.207-0.63,2.668-0.943,3.996
			c-0.307,1.3-1.031,1.533-2.107,1.406c-1.355-0.16-0.759-1.136-0.757-1.876c0.009-4.401,0.004-8.802,0.004-13.202
			c0.069-11.73-0.515-23.46,0.25-35.192c0.198-3.041,0.438-3.311,3.018-1.699c1.852,1.156,3.786,0.832,5.689,0.771
			C617.236,530.528,617.91,530.901,617.862,532.838z M614.821,526.373c0.113-0.707,0.551-1.348,1.51-1.313
			c0.532,0.168,1.388,0.13,1.186,1.069c-0.152,0.706-0.554,1.368-1.459,1.326C615.371,527.424,614.692,527.171,614.821,526.373z
			 M625.783,498.6c-2.383,0.525-3.979-0.663-4.053-3.117c-0.055-1.849-0.041-3.7,0.424-5.768c2.426,2.213,3.624,4.876,4.412,7.803
			C626.787,498.341,626.431,498.457,625.783,498.6z M629.021,567.015c-0.474,0.001-0.626-0.381-0.663-0.787
			c-0.032-0.341,0.119-0.605,0.48-0.633c0.538-0.04,0.602,0.34,0.591,0.757C629.396,566.639,629.423,567.014,629.021,567.015z
			 M629.203,562.977c-0.902-1.607-1.029-2.828-0.6-4.092c0.021-0.061,0.57-0.074,0.631,0.031
			C629.937,560.124,629.54,561.328,629.203,562.977z M645.875,529.532c-0.167,7.817-0.848,15.605-1.472,23.396
			c-0.121,1.516-0.594,2.257-2.277,2.426c-3.966,0.396-7.925,0.945-11.85,1.636c-1.445,0.255-1.626-0.254-1.738-1.42
			c-0.389-4.067-0.217-8.142-0.168-12.213c0-3.585,0.046-7.172-0.022-10.756c-0.027-1.492,0.432-2.32,2.029-2.33
			c1.813-0.013,2.368-0.969,2.419-2.764c0.152-5.368,0.233-5.365,5.604-5.366c2.443-0.001,5.549-0.816,7.118,0.6
			C646.998,524.078,645.926,527.199,645.875,529.532z M637.145,505.016c-0.08-1.285,1.488-2.055,2.827-2.219
			c1.586-0.196,1.102,1.223,1.4,2.046c-0.336,0.628,0.155,1.899-1.223,1.634C639.003,506.257,637.207,506.039,637.145,505.016z
			 M646.688,506.868c-1.665-2.185-2.321-4.57-2.19-7.285C646.604,501.019,647.566,504.227,646.688,506.868z M648.261,473.446
			c-0.012,0.722-0.214,1.441-0.381,2.47c-1.01-0.838-1.828-1.585-2.72-2.229c-0.557-0.403-1.019-1.314-1.836-0.917
			c-0.849,0.412-1.191,1.301-1.217,2.256c-0.011,0.407,0.019,0.815,0.026,1.223c0.032,1.742-0.43,2.985-2.304,3.761
			c-2.864,1.189-2.902,1.881-0.753,4.083c0.737,0.756,1.494,1.562,2.396,2.072c1.149,0.648,1.155,1.319,0.636,2.366
			c-0.558,1.127-1.132,1.017-2.124,0.49c-1.824-0.967-2.916-0.13-3.356,1.751c-0.464,1.983-0.247,3.888,0.724,5.687
			c0.729,1.35,1.482,2.685,2.254,4.077c-0.234,0.197-0.287,0.278-0.355,0.294c-5.268,1.207-6.328,0.624-7.927-4.432
			c-0.342-1.084-0.633-2.191-0.851-3.306c-0.466-2.378-0.908-4.601,1.55-6.5c1.598-1.234,2.063-3.45,2.316-5.516
			c0.103-0.839,0.689-1.8-0.447-2.371c-0.979-0.492-1.889-0.207-2.73,0.415c-2.205,1.629-2.417,1.545-2.988-1.222
			c-0.194-0.939-0.098-2.053-1.327-2.365c-1.189-0.302-2.126,0.326-2.762,1.187c-1.232,1.673-2.232,3.12-4.702,1.5
			c-0.95-0.623-1.732,0.83-1.847,1.932c-0.183,1.743,0.308,3.407,0.967,4.984c0.391,0.936,0.021,1.258-0.736,1.514
			c-2.493,0.843-4.015,0.017-4.576-2.541c-0.646-2.941-1.234-5.896-1.874-8.839c-0.247-1.137-0.189-1.708,1.324-1.727
			c7.251-0.092,14.501-0.469,21.752-0.468c3.49,0,6.469-1.044,9.396-2.763c1.272-0.746,3.014-2.111,4.149-1.281
			C649.041,469.835,648.285,471.922,648.261,473.446z M685.67,452.282c1.426,0.425,2.656,1.136,2.834,2.632
			c0.085,0.729-0.663,1.642-1.601,1.41c-1.351-0.333-2.618-1.113-2.819-2.613C683.973,452.876,684.772,452.333,685.67,452.282z
			 M680.025,469.613c-1.646,7.007-1.129,14.799-8.286,19.786c-0.888-3.643-1.328-6.964-1.298-10.36
			c0.013-1.424,0.75-2.486,1.638-3.434C674.358,473.173,677.662,472.1,680.025,469.613z M675.939,453.006
			c1.187-0.03,1.714,0.578,1.852,1.574c0.151,1.097-0.675,1.149-1.389,1.13c-1.029-0.028-1.588-0.595-1.604-1.682
			C674.785,453.117,675.32,452.972,675.939,453.006z M671.858,461.902c0.972-0.311,2.11-1.215,2.908-0.296
			c0.817,0.941,0.612,2.344-0.028,3.453c-0.396,0.686-0.991,1.285-1.591,1.819c-0.769,0.684-1.524,2.063-2.446,1.727
			c-1.111-0.406-0.689-2.005-0.891-2.759C669.674,463.868,670.059,462.478,671.858,461.902z M673.692,496.473
			c0.873,2.294,1.203,4.398-1.136,6.016c-1.024,0.709-1.003,1.754-1.129,2.804c-0.343,2.876-1.258,5.435-4.262,7.181
			C666.906,504.076,668.66,499.835,673.692,496.473z M659.276,458.034c0.636-0.677,1.472-0.945,2.164-0.34
			c1.55,1.355,2.661,3.056,3.078,5.105c0.175,0.862-2.194,2.391-3.444,2.35c-0.994-0.032-0.714-0.619-0.573-1.169
			c0.321-1.579,0.218-3.081-0.901-4.347C659.162,459.139,658.633,458.72,659.276,458.034z M659.79,473.402
			c1.695,0.496,1.709,2.407,2.562,3.62c0.629,0.895-0.374,1.764-1.13,2.374c-0.876,0.708-1.595,0.723-1.851-0.599
			c-0.261-1.349-0.53-2.697-0.796-4.044C658.481,473.809,658.891,473.14,659.79,473.402z M664.225,497.135
			c-0.982,1.859-2.347,3.269-4.886,1.555c-0.765,7.661-1.317,15.078-1.719,22.516c-0.772,14.319-1.092,28.649-1.245,42.982
			c-0.061,5.613,0.363,11.23,0.093,16.848c-0.073,1.521-0.546,2.906-2.055,3.635c-1.213,0.587-2.085,0.797-2.027-1.179
			c0.201-6.839,0.308-13.684,0.375-20.527c0.073-7.34,1.162-14.613,1.527-21.903c0.439-8.771,0.958-17.54,1.477-26.308
			c0.26-4.382,0.801-8.743,0.707-13.15c-0.095-4.487,2.87-7.844,4.722-11.562c1.125-2.256,3.096-4.091,4.935-6.429
			C666.795,488.545,666.418,492.982,664.225,497.135z M688.135,495.813c-0.622,12.61-1.301,25.217-1.931,37.827
			c-0.053,1.05-0.326,1.861-1.196,2.487c-0.825,0.594-1.921,1.087-1.202,2.478c0.158,0.307-0.019,0.694-0.392,0.755
			c-3.544,0.575-0.736,2.042-0.331,2.991c0.253,0.592,1.033,1.02,1.658,1.38c1.727,0.991,1.178,2.505,0.872,3.872
			c-0.331,1.483-1.567,0.775-2.43,0.721c-4.285-0.28-8.445-0.01-12.37,2.027c-1.033,0.535-1.399,1.098-1.362,2.225
			c0.113,3.381-0.126,6.926,0.231,10.115c0.749,6.689-0.992,13.386,0.624,19.982c0.424,1.727-1.02,1.763-2.102,1.953
			c-1.415,0.249-1.783-0.482-1.774-1.829c0.051-7.827,0.025-15.654,0.025-23.481c0-7.583,0.009-15.166-0.012-22.749
			c-0.003-1.001,0.137-1.919,0.63-2.806c0.393-0.71,0.832-1.458,0.962-2.238c0.987-5.916,4.563-10.208,8.668-14.225
			c0.845-0.826,2.509-1.729,0.7-3.32c-0.559-0.492,0.259-0.798,0.558-1.085c1.292-1.242,2.552-2.53,3.942-3.653
			c3.907-3.155,4.13-7.563,4.238-12.029c0.013-0.487-0.075-0.979-0.037-1.461c0.072-0.923,0.624-1.669,1.505-1.634
			C688.901,494.167,688.164,495.243,688.135,495.813z M678.662,499.941c-0.914-0.038-1.14-0.455-0.93-1.448
			c0.329-1.559,0.34-3.151,2.634-2.902c1.086,0.117,1.53,0.447,0.875,1.564C681.534,499.086,680.61,500.021,678.662,499.941z
			 M688.792,489.823c-0.078,1.612-1.601,1.447-2.56,1.791c-3.501,1.258-7.079,2.267-11.425,2.938
			c3.285-3.884,6.872-6.453,9.911-9.58c0.79-0.813,1.798-0.644,2.63,0.117C688.754,486.377,688.875,488.091,688.792,489.823z
			 M689.531,472.758c-0.092,1.702-0.746,3.194-3.03,2.807c-1.153-0.196-1.823,0.441-2.052,1.583c-0.142,0.7-0.163,1.497-1.231,1.841
			c-0.885-1.9-0.2-3.637,0.032-5.372c0.108-0.802,0.504-1.607,0.438-2.383c-0.37-4.417,2.864-5.817,5.888-7.477
			C689.576,466.852,689.691,469.813,689.531,472.758z M792.577,443.862c0.331,0.124,0.833,0.505,0.513,0.873
			c-0.729,0.839-1.697,0.475-2.654,0.301C790.762,443.831,791.49,443.455,792.577,443.862z M735.789,461.452
			c0.772-0.954,1.683-1.063,2.773-0.411c-0.761,1.016-1.603,1.495-2.753,1.021C735.727,462.028,735.688,461.578,735.789,461.452z
			 M729.266,461.648c1.438,0.013,0.853,0.801,0.626,1.413c-1.446,3.91-4.167,6.421-8.229,7.498
			C720.965,465.29,724.171,461.6,729.266,461.648z M717.444,469.177c-1.33,3.466-2.616,6.97-4.952,9.934
			c-0.396,0.5-0.898,0.952-1.434,1.298c-0.932,0.602-2.058,1.634-3.019,0.985c-0.655-0.444-0.631-1.891-0.819-2.561
			c0.149-2.142,0.647-3.735,2.328-4.654c2.19-1.197,3.466-3.105,4.318-5.363c0.194-0.517,0.189-1.133,0.833-1.385
			c0.887-0.346,1.837-1.15,2.711-0.542C718.13,467.389,717.715,468.472,717.444,469.177z M715.1,459.886
			c1.367-0.127,2.202,0.778,2.455,1.896c0.229,1.006-0.99,0.97-1.611,1.214c-1.427,0.56-2.924,0.899-4.665,0.612
			C711.831,461.388,712.966,460.083,715.1,459.886z M702.012,458.528c1.229-1.473,1.955-3.138,2.61-4.881
			c0.501-1.331,1.157-2.567,2.806-2.647c1.731-0.084,2.209,1.272,2.38,2.542c0.195,1.455,2.396,2.046,1.41,4.015
			c-1.211,2.419-2.763,4.428-5.336,5.348c-1.736,0.621-3.218,1.338-3.595,3.807C700.903,464.674,700.777,460.006,702.012,458.528z
			 M702.83,476.5c0.046,1.058,0.152,2.112,0.22,3.013c-0.122,2.354-0.087,4.58-0.888,6.665c-0.372,0.967-0.979,2.321-2.076,2.057
			c-0.918-0.221-0.745-1.682-0.62-2.62c0.139-1.037,0.464-2.058,0.788-3.06c0.613-1.905,0.707-3.825,0.393-5.792
			c-0.093-0.584-0.964-1.465,0.392-1.683C702.082,474.911,702.777,475.309,702.83,476.5z M697.272,446.584
			c0.513-0.568,1.144-0.628,1.773-0.395c0.742,0.274,1.073,0.983,1.289,1.677c0.295,0.947-0.569,1.084-1.118,1.221
			c-1.015,0.251-1.133,0.968-1.256,1.796c-0.123,0.829-0.738,1.37-1.508,1.32c-0.998-0.064-0.581-1.154-0.969-1.541
			C695.626,448.976,696.265,447.702,697.272,446.584z M744.374,582.312c-0.467-0.083-1.076-0.127-1.438,0.101
			c-2.236,1.401-3.722,1.433-4.689-1.561c-0.617-1.909-2.311-1.098-3.403-0.219c-0.886,0.713-1.627,1.898-2.794,1.779
			c-5.07-0.516-9.935,1.205-15.017,1.177c-3.794-0.022-7.68-0.532-11.494,0.158c-0.63,0.113-1.371,0.291-1.8-0.365
			c-1.03-1.579-1.938-0.875-2.873,0.072c-1.561,1.579-3.638,1.72-5.602,1.615c-1.751-0.093-1.244-1.808-0.635-2.359
			c1.529-1.385,1.66-3.287,2.393-4.96c0.357-0.818,0.731-1.638,0.983-2.49c2.863-9.671,9.917-14.413,19.284-16.459
			c1.352-0.295,2.685-0.678,4.041-0.946c0.55-0.108,1.139-0.018,1.709-0.018c4.838,0.226,8.74,2.679,12.632,5.242
			c4.086,2.692,6.21,6.642,7.449,11.172c0.625,2.287,2.164,4.19,2.53,6.589C745.833,582.038,745.694,582.546,744.374,582.312z
			 M776.824,584.148c2.771-1.514,5.063-1.323,6.957,0.419C781.491,585.368,779.32,585.554,776.824,584.148z M801.02,543.637
			c-0.499,0.576-0.36,1.201-0.344,1.848c0.024,0.976,0.107,1.968-0.023,2.927c-0.463,3.399-1.25,4.147-4.673,3.983
			c-9.599-0.459-19.113-1.436-28.483-3.835c-4.526-1.158-9.395-0.601-13.946-2.048c-3.715-1.182-7.442-2.73-11.363-2.574
			c-5.355,0.215-10.379-1.73-15.501-2.039c-5.781-0.348-11.705-0.229-17.562,0.062c-3.584,0.177-7.152,0.483-10.689,1.093
			c-1.024,0.178-1.665,0.179-1.555-1.229c1-12.678,0.71-25.404,1.36-38.098c0.178-3.459,1.938-6.011,4.055-8.369
			c7.768-8.657,16.87-15.763,26.134-22.747c9.89-7.456,21.103-12.106,32.438-16.613c3.557-1.414,7.016-3.016,10.364-4.861
			c2.656-1.464,5.377-2.023,8.45-1.407c3.604,0.722,7.07-0.593,10.555-1.326c0.781-0.164,1.521-0.562,2.577-0.352
			c-0.347,0.924-0.995,1.225-1.645,1.557c-2.19,1.119-2.498,2.437-0.554,3.772c1.495,1.028,1.412,2.147,1.175,3.533
			c-0.275,1.604-0.653,3.203-0.775,4.82c-0.11,1.475-0.408,2.469-1.993,3.153c-1.7,0.734-1.442,2.426-0.266,3.411
			c1.216,1.017,1.325,2.104,1.16,3.418c-0.214,1.697-0.428,3.395-0.702,5.083c-0.245,1.503-0.334,2.933-2.444,3.376
			c-1.577,0.331-1.605,3.412-0.384,5.132c0.466,0.656,1.91,0.693,1.407,1.952c-0.515,1.289-1.54,2.171-2.885,2.393
			c-1,0.165-1.512,0.455-1.338,1.511c0.133,0.799-0.313,0.963-0.984,0.972c-0.399,0.006-1.105,0.043-1.15,0.208
			c-0.829,3.057-2.426,1.181-3.898,0.73c-0.52-0.159-1.258,0.194-1.832,0.456c-1.672,0.764-3.29,1.247-5.097,0.295
			c-0.713-0.376-1.686-0.429-1.922,0.741c-0.457,2.257-1.957,1.823-3.04,0.896c-1.29-1.104-2.131-0.789-3.33,0.006
			c-1.276,0.847-2.779,1.345-4.101,2.135c-0.69,0.413-2.385,0.063-1.81,1.616c0.564,1.526,0.091,3.826,2.495,4.224
			c5.137,0.851,10.289,1.618,15.433,2.438c0.921,0.146,2.396-0.328,2.609,0.674c0.245,1.148-0.717,2.285-1.719,3.055
			c-0.941,0.723-1.978,1.205-3.118,0.361c-0.457-0.338-0.883-0.719-1.312-1.092c-0.362-0.314-0.65-0.709-1.252-0.432
			c-3.453,1.594-7.289,1.566-10.919,2.688c0.888,2.846,0.254,5.188-2.831,6.455c-0.307,0.126-0.662,0.195-0.687,0.575
			c-0.074,1.12,0.162,2.392-1.604,2.412c-1.836,0.021-3.857,0.685-5.227-1.103c-1.488-1.94-2.798-1.699-3.996,0.147
			c-0.537,0.828-1.093,0.706-1.831,0.522c-1.914-0.479-3.858-0.59-5.823-0.361c-0.981,0.113-1.685,0.391-0.905,1.496
			c0.525,0.743,1.28,1.404,0.189,2.248c-1.015,0.783-2.155,0.823-3.199,0.221c-0.836-0.484-1.518-1.293-2.507-1.457
			c-1.407-0.234-3.054-0.737-3.328,1.509c-0.084,0.678-0.582,0.646-0.969,0.89c-3.134,1.979-7.078,2.232-9.991,4.695
			c-0.284,0.24-0.775,0.225-1.159,0.358c-1.098,0.382-2.636-0.14-3.248,1.193c-0.786,1.71-1.174,3.571-0.908,5.474
			c0.165,1.179,0.828,1.918,2.158,1.812c1.215-0.099,2.503,0.071,3.638-0.272c4.82-1.465,9.59-1.889,14.676-1.219
			c10.119,1.33,20.271,1.396,30.312-1.106c2.286-0.57,4.7-0.477,7.032,0.117c2.857,0.729,5.096-0.75,7.216-2.212
			c2.358-1.628,4.909-2.391,7.689-2.792c1.907-0.276,3.528,0.024,5.011,1.251c0.425,0.353,0.973,0.803,1.459,0.797
			c4.09-0.051,4.915,2.954,5.388,5.973c0.271,1.738,0.947,2.182,2.501,2.008c0.638-0.07,1.298,0.07,1.947,0.104
			C801.712,540.979,802.771,541.618,801.02,543.637z M784.61,506.737c-0.022,0.735-0.85,0.882-1.487,0.888
			c-0.721,0.007-1.687-0.117-1.725-0.908c-0.045-0.91,0.929-0.809,1.618-0.839C783.677,505.948,784.644,505.689,784.61,506.737z
			 M756.308,527.817c0.16-0.997,1.771-1.089,2.821-1.406c2.533-0.765,5.358-0.844,7.265-3.157c-0.156-0.244-0.204-0.31-0.243-0.379
			c-0.518-0.951-2.38-1.448-1.784-2.525c0.56-1.012,2.197-1.256,3.543-1.223c1.62,0.041,3.258-0.181,4.847,0.371
			c1.211,0.421,2.417,1.013,2.55,2.351c0.272,2.748,2.156,4.226,4.071,5.737c-4.854,4.936-15.84,6.353-20.926,2.688
			C757.534,529.611,756.146,528.824,756.308,527.817z M756.259,533.881c-1.421,0.646-2.874,1.08-3.708,0.979
			c-3.292-0.139-5.647-0.871-7.976-1.88c-1.517-0.656-1.265-1.368-0.47-2.334c0.862-1.048,1.926-1.714,3.324-1.731
			c3.339-0.042,6.294,1.1,9.065,2.872C757.932,532.705,757.54,533.297,756.259,533.881z M758.657,519.804
			c0.887-0.349,1.653-0.472,2.52,0.063C760.276,520.913,759.515,520.883,758.657,519.804z M743.069,534.153
			c-2.577,1.472-5.207,0.897-8.312,0.689C738.414,532.373,740.984,532.227,743.069,534.153z M804.589,601.801
			c-1.481-0.029-0.349-1.057-0.592-1.573c0.187-0.597-0.408-1.816,0.653-1.646c0.943,0.152,0.449,1.527,0.759,2.32
			C805.615,601.432,805.152,601.812,804.589,601.801z M858.094,483.222c-2.147-0.174-3.953-0.339-6,0.906
			c-1.631,0.994-3.796-0.157-5.715-0.465c-1.731-0.278-3.713-1.049-4.684,1.195c-0.938,2.167,0.122,3.794,1.979,4.916
			c1.489,0.898,1.893,1.901,1.082,3.572c-0.989,2.038-1.705,4.209-2.525,6.328c-0.192,0.498-0.792,1.32-0.172,1.504
			c3.416,1.018,4.317,5.225,7.883,6.131c-3.03,0.038-6.347,1.213-8.536-2.524c-0.545,0.688-0.925,1.347-1.465,1.822
			c-2.28,2.006-5.261,1.163-6.056-1.659c-1.489-5.278-2.151-10.669-2.377-16.14c-0.075-1.8,0.271-2.775,2.321-2.432
			c0.792,0.132,1.628,0.032,2.44-0.008c0.932-0.046,1.847-0.169,1.806-1.444c-0.034-1.08-0.411-1.912-1.619-2.078
			c-1.37-0.188-2.736-0.446-4.113-0.524c-1.535-0.086-2.028-0.978-2.198-2.316c-0.299-2.341-0.694-4.67-0.966-7.014
			c-0.337-2.899,0.314-3.772,2.969-2.79c5.061,1.874,10.106,0.619,15.155,0.663c2.033,0.018,4.066-0.188,6.101-0.201
			c1.401-0.009,2.691-0.194,3.997-0.819c2.323-1.114,4.139,0.046,4.245,2.574c0.1,2.358,0.146,4.719,0.23,7.078
			C861.985,482.55,861.262,483.48,858.094,483.222z M865.907,459.142c-0.05,0.494,0.04,1.249-0.95,1.18
			c-0.678-0.047-0.979-0.518-1.021-1.132c-0.051-0.75,0.285-1.225,1.095-1.277C865.849,457.86,865.941,458.381,865.907,459.142z
			 M864.859,454.916c-0.979-0.007-1.747-0.428-1.813-1.499c-0.054-0.848,0.447-1.312,1.329-1.325
			c1.175-0.018,1.726,0.646,1.927,1.665C866.364,454.881,865.583,454.92,864.859,454.916z M945.047,448.731
			c0.576,0.006,0.747,0.485,0.748,0.885c-0.285,1.164-0.794,1.893-1.974,1.875c-0.524-0.008-0.77-0.309-0.489-0.748
			C943.811,449.997,943.735,448.716,945.047,448.731z M929.942,426.426c3.578,1.164,7.077,2.415,10.88,0.746
			c0.718-0.315,2.122-0.541,2.383,0.845c0.213,1.131-0.649,1.947-1.658,2.071c-3.035,0.371-5.703,1.926-8.91,2.087
			c-2.871,0.145-5.499,0.264-8.31-1.073c3.41-1.375,7.327,0.294,10.725-2.068c-3.795-1.601-7.803,0.518-11.215-2.294
			C926.037,425.815,928.021,425.801,929.942,426.426z M941.901,432.852c-1.151,0.908-2.025,0.93-3.155-0.09
			C939.891,432.287,940.767,432.129,941.901,432.852z M923.454,459.799c0.238-2.231,1.989-2.754,3.899-2.855
			c1.168-0.062,2.402-0.055,2.583,1.51c0.178,1.545-1.805,2.945-4.283,2.979C924.761,461.289,923.271,461.504,923.454,459.799z
			 M928.361,446.239c0.942,0.108,2.271,0.112,2.363,1.167c0.059,0.683-1.083,1.312-2.469,1.19c-0.464-0.091-1.591-0.004-1.635-1.128
			C926.586,446.532,927.44,446.132,928.361,446.239z M927.549,441.555c0.291-0.542,0.826-0.776,1.438-0.702
			c1.52,0.184,3.035,0.397,4.755,0.626c-1.432,1.571-4.256,2.018-5.706,1.016C927.701,442.265,927.299,442.021,927.549,441.555z
			 M927.385,452.169c2.235-0.201,4.485-0.294,6.777,0.508c-2.288,0.417-4.274,1.92-6.682,1.815c-0.909-0.04-1.932-0.24-1.956-1.366
			C925.496,451.856,926.706,452.23,927.385,452.169z M918.85,412.313c0.704-0.035,1.588-0.206,1.694,0.832
			c0.105,1.032-0.226,2.002-1.392,2.201c-1.598,0.271-3.09,0.096-3.801-1.751C916.347,412.747,917.547,412.377,918.85,412.313z
			 M921.721,419.703c-2.939,0.173-5.727,0.342-8.463-0.576C915.683,416.975,919.786,417.166,921.721,419.703z M914.029,433.622
			c0.073,1.056-1.262,1.022-2.139,1.045c-0.903,0.025-2.184-0.032-2.208-1.022c-0.033-1.316,1.386-0.438,1.915-0.836
			C912.59,432.977,913.956,432.554,914.029,433.622z M913.833,427.576c-0.057,0.565,0.052,1.199-0.806,1.223
			c-1.049-0.024-1.352-0.846-1.554-1.62c-0.222-0.846,0.474-0.875,1.061-0.893C913.41,426.261,913.935,426.585,913.833,427.576z
			 M912.464,422.23c-0.993,1.265-1.918,1.454-3.308,0.952C910.113,421.774,911.114,422.021,912.464,422.23z M914.215,438.018
			c-1.914,1.849-3.896,1.074-6.291,1.198C910.076,437.649,911.96,437.841,914.215,438.018z M886.451,425.399
			c-1.195-1.077-2.535-1.242-3.93-1.269c-1.216-0.024-2.454,0.016-3.583-0.544c-0.786-0.39-1.808-0.874-1.62-1.818
			c0.171-0.863,1.184-1.299,2.101-1.437c1.404-0.213,2.732,0.312,4.083,0.56c5.302,0.974,10.503,1.579,15.806-0.459
			c3.748-1.44,5.986,1.332,8.189,4.278c-3.249,0.654-6.257,1.251-9.259,1.868c-1.669,0.343-3.291,0.717-4.688,1.862
			c-1.386,1.135-3.149,0.613-4.727,0.552c-3.488-0.133-6.951-0.723-10.465-0.477c-1.046,0.073-2.081-0.214-2.909-1.224
			C878.743,424.473,882.981,427.344,886.451,425.399z M902.411,437.122c-1.19,0.327-3.457-1.271-3.327,1.776
			c0.014,0.352-1.304,0.383-2.041,0.422c-2.765,0.146-5.07-0.713-7.012-3.128c2.035-0.758,3.662-1.867,5.374-2.37
			c2.982-0.877,6.172-1.041,9.322-0.835c0.253,0.017,0.638,0.323,0.698,0.561C905.642,434.399,903.328,436.87,902.411,437.122z
			 M889.313,438.612c-2.299,0.233-3.144-1.306-4.535-2.635C887.324,435.571,888.158,437.061,889.313,438.612z M881.312,434.665
			c-0.927,0.605-1.928,0.617-2.93,0.533c-0.644-0.053-1.485-0.166-1.425-0.964c0.047-0.595,0.86-0.688,1.412-0.606
			C879.377,433.776,880.498,433.655,881.312,434.665z M878.306,439.474c-1.271,1.55-2.659,0.723-3.938,0.479
			C875.598,438.891,876.875,439.211,878.306,439.474z M869.193,443.7c-0.452-0.07-0.681-0.417-0.65-0.83
			c0.032-0.456,0.339-0.704,0.819-0.536c0.431,0.151,0.519,0.536,0.573,0.808C869.813,443.656,869.523,443.751,869.193,443.7z
			 M888.635,473.12c-1.54-0.042-3.09,0-4.628,0.109c-4.53,0.32-7.124,3.458-9.613,6.718c-0.442,0.579-0.743,1.287-1.253,1.789
			c-1.134,1.115-2.261,0.783-2.632-0.79c-0.749-3.168,0.46-6.155,1.362-9.035c0.437-1.394,2.505,0.002,3.291-0.263
			c4.88-0.257,9.229-1.043,13.625-0.733c0.607,0.042,1.721-0.588,1.664,0.861C890.402,472.987,889.666,473.148,888.635,473.12z
			 M904.552,467.413c-4.041,1.261-8.136,1.737-12.124-0.197c-1.532-0.743-3.043-0.164-4.561-0.234
			c-3.902-0.179-7.807-0.378-11.697,0.217c-0.735,0.112-1.462,0.05-2.033-0.548c-0.518-0.542-1.069-1.139-0.964-1.899
			c0.129-0.931,1.065-0.867,1.726-0.94c3.067-0.339,6.196-0.909,8.8,1.498c0.61,0.564,1.222,0.149,1.842,0.058
			c7.727-1.136,15.488-1.334,23.63-0.898C907.809,466.126,906.209,466.896,904.552,467.413z M906.468,450.969
			c-2.692-0.641-5.273-0.642-7.878,0.537c1.554,1.888,1.552,1.927,6.103,2.057c2.204,0.062,4.386,0.121,6.494,0.933
			c-1.16,1.52-1.259,1.68-3.129,1.239c-4.128-0.974-8.287,0.172-12.415-0.321c-0.533-0.063-1.283-0.02-1.389,0.681
			c-0.097,0.626,0.545,0.955,1.009,1.262c1.41,0.933,3.137,1.064,4.446,0.369c1.661-0.882,3.069-0.548,4.644-0.168
			c1.501,0.362,3.021,0.673,4.549,0.882c1.535,0.21,1.519,0.911,0.727,1.904c-0.865,1.085-2.021,1.597-3.419,1.574
			c-3.253-0.054-6.504,0.09-9.731-0.617c-1.911-0.418-3.926-0.596-5.554,0.929c-0.666,0.624-1.349,0.342-2.059,0.234
			c-4.506-0.692-9.014-1.379-13.521-2.06c-0.783-0.118-1.782,0.024-1.584-1.258c0.155-1.013,0.711-1.585,1.844-1.466
			c2.427,0.256,4.85,0.495,7.25,0.997c2.305,0.481,4.649,0.638,7.071-0.435c-1.507-2.094-3.609-2.79-5.853-3.253
			c-2.389-0.494-4.773-1.001-7.157-1.518c-0.537-0.117-1.188-0.121-1.412-0.761c-0.332-0.954,2.59-4.618,3.687-4.564
			c1.215,0.06,2.424,0.268,3.636,0.406c1.115,0.127,2.232,0.306,3.637-0.104c-2.247-3.447-6.266-2.423-9.106-4.051
			c1.183-1.158,2.697-0.7,4.087-0.736c1.539-0.039,3.102,0.304,4.606-0.195c0.493-0.164,1.292-0.088,1.373-0.801
			c0.086-0.744-0.653-0.771-1.161-0.987c-0.272-0.115-0.478-0.387-1.093-0.914c3.537-0.618,6.539,0.247,9.566,0.656
			c2.119,0.287,4.205,0.546,6.204-0.524c0.688-0.367,1.403-0.342,2.101,0.049c2.774,1.559,5.724,1.553,8.771,1.096
			c1.662-0.249,4.217-0.566,4.332,1.363c0.11,1.831-2.416,2.179-4.239,2.271c-3.037,0.154-6.137-0.437-9.315,0.74
			c2.679,3.967,7.091,0.99,10.225,2.858C911.165,451.809,908.801,451.524,906.468,450.969z M916.2,455.394
			c-0.383,0.055-0.794,0.115-0.884-0.246c-0.086-0.547,0.103-0.77,0.439-0.863c0.43-0.119,0.784-0.002,0.909,0.458
			C916.765,455.107,916.561,455.341,916.2,455.394z M918.863,427.498c-0.055,0.769,0.047,1.814-1.16,1.743
			c-1.514-0.089-2.38-1.076-2.497-2.515c-0.094-1.148,0.97-0.75,1.497-0.876C917.964,425.813,918.97,426.012,918.863,427.498z
			 M933.279,471.277c-0.234-0.148-0.716-0.033-0.6-0.548c0.081-0.359,0.339-0.571,0.699-0.453c0.191,0.063,0.412,0.271,0.472,0.461
			C934.008,471.228,933.57,471.188,933.279,471.277z M928.891,467.635c-2.257-0.564-4.414-1.523-6.62-2.293
			c-0.321-0.112-0.615-0.192-0.587-0.602c0.029-0.421,0.376-0.541,0.68-0.5c3.931,0.53,7.857,1.084,12.438,1.724
			C932.598,468.058,930.685,468.083,928.891,467.635z M927.313,436.645c-0.872-0.768-2.081-0.24-3.048-1.515
			c4.064-0.565,7.757-1.102,11.2,1.015c1.279,0.786,2.739,0.203,4.052,0.643c0.58,0.194,1.421,0.218,1.404,1.029
			c-0.016,0.818-0.711,1.48-1.456,1.353C935.375,438.468,930.824,439.734,927.313,436.645z M938.802,442.091
			c-0.99,0.295-1.771,0.41-2.785-0.458C937.281,441.219,938.046,441.264,938.802,442.091z M936.585,477.551
			c-0.64-0.171-1.235-0.462-1.298-1.197c-0.039-0.459,0.315-0.686,1.065-0.57c0.422,0.077,0.923,0.409,0.963,1.173
			C937.342,477.455,937.091,477.687,936.585,477.551z M939.354,466.796c-0.082,0.427,0.078,1.005-0.529,1.155
			c-0.423,0.105-0.514-0.276-0.554-0.58c-0.063-0.48-0.016-0.935,0.434-1.088C939.229,466.235,939.431,466.403,939.354,466.796z
			 M942.763,456.324c-1.893,0.503-5.592-1.301-6.448-3.084c0.337-0.524,0.998-0.451,1.275-0.251c1.796,1.295,3.5,2.592,5.723,0.699
			c0.337-0.287,0.925,0.238,0.863,0.824C944.084,455.382,943.627,456.095,942.763,456.324z"/>
		<path fill-rule="evenodd" clip-rule="evenodd" d="M449.488,488.871c1.821,0.412,3.605,1.022,5.441,1.312
			c0.93,0.146,2.455,0.526,2.721-0.744c0.216-1.031-0.64-2.106-1.769-2.688c-1.131-0.583-2.246-1.225-2.962-2.489
			c1.548-0.724,3.227-0.865,4.354-2.136c-2.392-2.455-5.396-1.501-8.15-1.848c-0.616-0.077-3.261,1.566-1.998-1.529
			c0.19-0.467-1.069-1.157-1.896-1.248c-1.29-0.142-2.568-0.175-3.849,0.334c-1.494,0.595-3.024,1.219-4.936,0.946
			c1.672-1.786,0.883-3.368-0.852-5.344c2.817,0.657,4.904,1.228,7.025,1.608c1.179,0.21,2.634,0.5,3.493-0.488
			c0.842-0.967-1.069-1.542-0.833-2.604c5.673-1.437,6.316-1.716,7.977-3.475c-2.201-0.961-4.511-1.311-6.855-1.504
			c-0.688-0.057-1.6,0.211-1.58-0.96c0.029-1.703-1.089-1.652-2.315-1.673c-1.668-0.029-2.936,0.906-4.278,1.625
			c-1.088,0.581-1.874,0.765-2.532-0.552c-0.981-1.961-2.163-1.872-3.795-0.523c-1.843,1.524-3.215,3.613-6.271,3.585
			c-3.468-0.031-6.044-1.539-6.724-5.246c1.415,0.138,2.787,0.271,4.16,0.407c1.223,0.12,2.445,0.217,3.603-0.336
			c0.502-0.24,1.232-0.523,0.524-1.178c-2.059-1.899-0.494-2.522,1.025-3.321c1.075-0.565,2.073-1.293,3.051-2.023
			c0.488-0.364,1.442-0.606,1.27-1.276c-0.227-0.869-1.216-1.008-2.033-0.995c-1.79,0.029-3.579,0.167-5.37,0.211
			c-0.796,0.019-1.788,0.103-1.527-1.204c0.329-1.641-0.753-1.605-1.852-1.738c-1.681-0.203-3.013,0.616-4.33,1.394
			c-1.467,0.868-2.647,1.095-3.535-0.733c-0.27-0.554-0.672-1-1.477-1.079c-3.424-0.332-3.42-0.371-2.564-3.673
			c0.061-0.237,0.137-0.473,0.168-0.714c0.14-1.077,0.223-2.174-0.892-2.823c-1.086-0.633-2.213-0.508-3.228,0.173
			c-0.604,0.404-1.104,0.96-1.658,1.439c-0.993,0.86-1.908,1.215-3.229,0.345c-1.672-1.101-3.294-0.706-4.402,1.038
			c-0.465,0.729-0.896,1.398-1.882,1.213c-1.323-0.249-1.994,0.57-2.858,1.39c-1.388,1.317-2.218,3.553-4.788,3.208
			c-2.026-0.272-2.282,0.66-1.783,2.477c0.768,2.792,3.131,3.885,5.204,5.214c1.451,0.929,1.163,1.631,0.294,2.612
			c-2.189,2.472-4.961,2.702-7.981,2.242c0.027-1.394,1.565-1.512,1.794-2.642c-1.551-1.18-3.487-0.417-5.465-1.094
			c1.757-1.101,3.37-2.026,4.563-3.455c0.304-0.362,0.857-0.711,0.641-1.219c-0.234-0.553-0.839-0.693-1.451-0.644
			c-0.568,0.044-1.149-0.001-1.709,0.091c-1.589,0.262-1.977-0.486-1.83-1.924c0.179-1.78,0.241-3.573,0.335-5.362
			c0.112-2.138-0.895-2.822-2.782-1.7c-1.978,1.176-4.028,1.573-6.297,1.498c-3.233-0.108-6.474-0.028-9.727-0.028
			c-0.046,0.973,0.334,2.035,0.952,3.016c0.462,0.733,0.258,1.074-0.525,1.441c-2.992,1.401-2.975,1.433-0.826,3.727
			c0.556,0.594,0.998,1.091-0.194,1.589c-6.795,2.837-6.787,2.856-12.542-1.305c-0.329-0.238-0.652-0.489-0.951-0.765
			c-3.047-2.822-2.944-4.104,0.489-6.202c2.675-1.635,2.675-1.635,0.237-3.56c1.209-2.13,3.709-3.113,3.75-6.457
			c0.041-3.375,5.806-5.374,9.022-3.734c1.521,0.775,2.973,1.741,4.689,1.969c1.526,0.201,3.311,0.458,3.886-1.521
			c0.628-2.161-1.289-1.976-2.521-2.359c-0.153-0.047-0.307-0.121-0.436-0.215c-0.378-0.276-1.053-0.461-0.911-0.985
			c0.104-0.386,0.63-0.783,1.053-0.925c0.512-0.173,1.146-0.219,1.668-0.083c2.971,0.774,5.583,0.025,8.117-1.565
			c1.646-1.033,3.415-1.87,5.462-1.926c0.699-0.019,1.412-0.363,2.072-0.662c0.41-0.187,0.947-0.508,1.048-0.874
			c0.162-0.58-0.547-0.758-0.94-0.929c-1.283-0.556-2.612-1.01-4.131-1.582c2.096-1.42,4.555-1.181,6.455-2.403
			c0.68-0.438,1.665-0.836,1.605-1.684c-0.066-0.951-1.277-1.126-1.926-1.105c-2.644,0.086-1.928-1.357-1.423-2.77
			c0.165-0.458,0.411-0.893,0.52-1.362c0.459-1.98-0.262-2.734-2.271-2.466c-1.315,0.176-2.149,0.967-2.955,1.955
			c-0.959,1.179-2.223,2.278-3.724,0.999c-1.113-0.948-2.25-1.144-3.716-1.019c1.881-2.666-0.914-2.605-1.95-3.613
			c0.389-0.602,0.76-1.222,1.176-1.811c1.102-1.559,0.737-2.234-1.193-2.385c-1.659-0.13-2.976,0.74-4.454,1.122
			c-1.549,0.4-3.069,1.209-4.245-0.798c-0.436-0.743-1.589-0.816-2.215-0.247c-2.438,2.215-5.552,2.659-8.431,3.813
			c-3.038,1.218-5.277,1.832-8.059-0.12c-1.247-0.877-3.036-0.983-3.871-2.724c3.124-0.361,6.172,0.317,9.097-0.561
			c0.64-0.192,1.69-0.197,1.777-0.948c0.109-0.949-0.946-0.856-1.601-1.106c-0.552-0.211-1.338-0.187-1.457-1.057
			c0.75-0.495,1.521-0.95,2.231-1.486c0.715-0.539,1.402-1.125,2.036-1.754c0.376-0.373,1.05-0.773,0.76-1.368
			c-0.242-0.496-0.924-0.59-1.517-0.635c-1.729-0.131-3.394,0.167-5.074,0.554c-1.389,0.32-3.007,0.843-3.065-1.623
			c-0.022-0.897-0.796-1.157-1.62-1.063c-1.463,0.166-2.877,0.352-3.87,1.71c-0.7,0.958-1.514,1.881-2.67,2.375
			c-1.627-3.372-2.609-3.868-4.73-2.415c-2.267,1.554-2.802,4.296-1.171,6.593c1.78,2.503,3.778,4.774,4.404,8.018
			c0.39,2.02,0.398,2.994-1.876,3.164c-0.556,0.042-1.438,0.218-1.604,0.904c-0.179,0.738,0.665,1.023,1.117,1.429
			c1.681,1.51,3.893,1.945,6.035,2.671c-0.887,0.872-1.89,0.959-2.822,1.224c-0.643,0.182-1.344,0.451-1.449,1.147
			c-0.142,0.929,0.735,1.187,1.382,1.437c2.308,0.892,4.649,0.505,6.974,0.043c3.196-0.636,3.824-0.294,4.869,2.877
			c0.254,0.767,0.428,1.571,0.542,2.372c0.343,2.39-0.539,3.69-2.874,4.209c-1.134,0.251-2.229,0.022-3.358-0.286
			c-4.861-1.323-8.658-4.3-10.502-8.756c-1.016-2.455-2.216-2.009-3.834-2.046c-0.532-0.012-1.229,0.243-1.525-0.423
			c-0.292-0.655,0.276-1.024,0.689-1.402c0.818-0.748,1.053-1.644,0.58-2.647c-0.495-1.052-1.394-0.871-2.32-0.716
			c-2.471,0.412-4.215-0.413-5.266-2.845c-0.833-1.927-3.12-2.232-4.37-0.804c-0.766,0.875-0.619,2.009-0.854,3.008
			c-0.337,1.43-0.866,2.124-2.456,1.872c-1.395-0.221-2.653,0.056-3.77,1.201c-1.862,1.91-2.451,4.414-1.239,6.903
			c0.2,0.412,0.309,0.616-0.034,0.988c-1.587,1.731-0.412,2.352,1.16,2.794c1.589,0.448,3.176,0.898,4.858,1.374
			c-1.038,1.48-2.26,0.732-3.318,0.723c-1.508-0.014-2.243,0.308-1.259,1.901c0.597,0.964,1.125,1.97,1.688,2.965
			c-3.277,0.973-3.335,1.17-1.049,3.799c1.635,1.88,3.523,3.391,6.079,3.767c2.062,0.305,3.126,1.575,3.557,3.489
			c0.319,1.415,0.575,2.843,0.901,4.468c-7.063-0.108-13.932-1.204-20.738-2.898c-1.186-0.295-1.759-0.817-2.211-1.875
			c-1.306-3.062-3.701-4.825-6.904-5.646c-3.353-0.859-6.731,0.615-10.1-0.26c-1.1-0.285-1.431,0.762-0.967,1.605
			c1.061,1.925-0.197,1.688-1.424,1.791c-2.311,0.193-4.638,0.383-7.025,1.219c1.579,2.274,4.034,2.761,6.172,3.654
			c-0.26,1.111-1.94,1.654-1.313,2.733c0.638,1.098,2.093,1.057,3.335,1.024c0.652-0.017,1.307,0.022,1.958-0.008
			c1.422-0.066,2.813-0.182,2.948,1.859c0.064,0.958,0.938,0.695,1.534,0.748c2.867,0.253,5.421-0.447,7.772-2.203
			c1.777-1.329,3.484-3.148,6.062-2.605c7.638,1.61,15.433,2.498,22.907,4.849c7.556,2.376,14.88,5.254,21.145,10.303
			c1.583,1.276,2.877,2.44-0.014,3.661c-0.667,0.282-0.755,1.02-1.088,1.56c-2.139,3.468-4.936,6.222-8.52,8.215
			c-4.844,2.695-9.503,5.666-13.745,9.279c-3.415,2.909-7.123,5.436-11.029,7.656c-0.478,0.271-0.975,0.855-1.516,0.557
			c-0.642-0.354-0.442-1.16-0.439-1.776c0.007-1.783,1.355-3.333,0.943-5.303c-1.532,0.384-2.299,1.466-2.843,2.783
			c-0.372,0.9-0.682,1.833-1.129,2.694c-5.997,11.525-13.034,22.514-17.773,34.691c-0.67,1.722-1.878,3.23-2.807,4.854
			c-0.614,1.074-1.207,1.008-2.061,0.203c-1.574-1.483-1.895-3.546-2.712-5.388c-4.56-10.275-3.301-20.329,1.129-30.251
			c1.426-3.193,3.005-6.161,7.488-5.256c1.273,0.257,2.708-0.424,3.922-1.143c0.479-0.283,1.097-0.458,1.115-1.167
			c0.061-2.25,1.501-1.752,2.714-1.248c1.657,0.689,3.294,0.903,4.98,0.312c1.288-0.451,3.207-0.835,3.112-2.278
			c-0.084-1.271-1.989-1.354-3.28-1.548c-0.134-0.021-0.248-0.176-0.414-0.301c0.451-0.764,0.923-1.517,1.352-2.293
			c2.401-4.338,2.276-4.583-2.703-5.453c-0.099-0.017-0.176-0.156-0.303-0.275c0.661-0.375,1.304-0.706,1.91-1.095
			c0.686-0.438,1.379-0.881,1.991-1.411c0.514-0.443,1.498-0.82,1.244-1.555c-0.261-0.761-1.212-0.958-2.066-1.036
			c-0.839-0.076-2.129,0.532-2.011-1.214c0.104-1.537-0.757-1.835-2.146-1.83c-2.937,0.013-3.62-0.668-2.686-3.46
			c0.748-2.237-0.09-2.896-1.901-3.365c-0.46-0.119-0.892-0.349-1.461-0.578c1.863-1.645,3.494-3.333,4.696-5.55
			c-1.532-0.513-2.94-0.635-4.327,0.104c-2.366,1.261-4.608,1.283-6.847-0.387c-1.674-1.247-3.534-0.312-3.766,1.129
			c-0.548,3.397-1.966,5.62-5.349,6.539c-0.764,0.208-0.961,2.124-2.198,0.976c-1.124-1.042-0.289-2.068,0.482-2.972
			c0.316-0.372,0.579-0.792,0.912-1.147c0.896-0.954,0.548-1.558-0.517-1.987c-0.828-0.333-1.634-0.76-2.491-0.971
			c-1.01-0.247-1.348-0.709-1.514-1.793c-0.502-3.292-2.048-4.049-4.887-2.333c-1.427,0.863-2.667,0.966-4.13,0.367
			c-0.671-0.275-1.407-0.442-2.129-0.527c-0.957-0.113-2.127-0.454-2.793,0.36c-0.773,0.945,0.342,1.737,0.766,2.486
			c0.6,1.053,0.779,1.642-0.669,2.057c-0.764,0.219-2.092,0.441-1.975,1.437c0.126,1.07,1.313,1.589,2.359,1.858
			c1.695,0.436,3.471,0.563,5.396,1.426c-1.546,0.947-2.874,1.761-4.273,2.618c2.054,1.411,2.208,1.443,5.661,1.298
			c3.685-0.154,4.336,0.279,5.891,3.626c0.77,1.655,1.042,3.417,1.336,5.18c0.33,1.982-0.564,2.239-2.181,1.517
			c-1.61-0.72-2.907-1.754-3.813-3.293c-1.186-2.016-2.942-3.245-5.291-3.495c-0.573-0.061-1.671-0.269-1.491,0.669
			c0.553,2.873-1.455,1.638-2.499,1.582c-2.03-0.111-4.008-1.171-6.542-0.327c2.596,1.386,4.767,2.709,6.221,4.972
			c-1.24,0.774-1.955-0.315-2.846-0.434c-1.046-0.139-2.382-0.674-2.553,1.21c-0.233,2.563-0.279,2.558-2.598,1.199
			c-1.368-0.802-2.446-2.204-4.321-1.978c-1.347,0.163-2.629,0.226-1.625,2.138c0.592,1.128-0.146,1.314-0.987,1.182
			c-0.627-0.098-1.313-0.302-1.806-0.677c-2.096-1.596-3.384-2.017-5.358,0.791c-2.754,3.916-3.223,3.627-0.811,8.038
			c0.443,0.812,0.542,1.191-0.338,1.682c-1.941,1.08-0.583,1.945,0.408,2.322c1.268,0.483,2.709,0.492,4.061,0.777
			c1.07,0.226,2.088,0.55,1.674,2.062c-0.388,1.418,0.56,1.934,1.68,2.144c1.67,0.313,3.419,0.318,5.034,0.798
			c9.268,2.749,15.398,9.356,20.492,17.103c1.763,2.682,0.936,4.208-2.192,4.786c-0.722,0.134-1.48,0.175-2.154,0.435
			c-0.72,0.277-1.761,0.518-1.69,1.491c0.072,1.006,0.92,1.361,1.927,1.494c1.127,0.149,2.485-0.095,3.201,1.244
			c-0.755,0.459-1.458,0.36-2.184,0.145c-1.955-0.58-3.101-0.313-2.233,2.125c0.753,2.115-0.216,3.217-2.26,3.588
			c-1.239,0.225-2.482,0.672-3.834,0.119c0.717-1.508,2.808-2.998,2.132-4.152c-0.869-1.484-3.273-0.852-5.023-0.959
			c-4.091-0.25-7.797,0.297-9.772,4.688c-0.623,1.383-2,1.885-3.675,1.861c-6.032-0.082-17.931-7.068-20.357-12.15
			c-0.291-0.607-0.753-0.895-1.286-0.979c-2.154-0.34-2.583-1.864-2.734-3.685c-0.127-1.542-0.327-3.081-0.561-4.612
			c-0.718-4.709,0.606-4.97-5.518-4.973c-0.245,0-0.491,0.023-0.734,0.005c-1.341-0.108-1.695,0.541-1.471,1.774
			c0.513,2.824,0.285,5.69,0.459,8.531c0.132,2.148-0.888,2.528-2.622,2.299c-0.401-0.054-0.788-0.244-1.188-0.27
			c-1.134-0.07-2.157,0.047-1.162,1.545c0.711,1.068,0.211,1.512-0.731,1.981c-1.6,0.796-3.148,1.696-4.713,2.562
			c-5.693,3.144-11.619,5.491-18.266,5.504c-1.136,0.002-2.027-0.212-2.792-1.115c-1.289-1.522-2.733-2.334-4.536-0.642
			c-0.672,0.631-1.813,0.744-2.172,0.077c-0.522-0.973,0.676-1.242,1.347-1.626c0.21-0.12,0.47-0.155,0.677-0.278
			c0.729-0.433,2.177-0.395,2.139-1.18c-0.059-1.225-1.436-1.631-2.515-1.98c-0.526-0.17-1.131-0.088-1.7-0.134
			c-4.047-0.328-8.101-0.487-12.201-0.396c1.165-4.465,0.954-4.787-3.529-5.683c-1.037-0.206-2.057-0.517-3.101-0.665
			c-0.67-0.096-1.517-1.143-2.032,0.179c-0.35,0.899-0.813,1.897-0.205,2.803c0.592,0.881,1.565,0.802,2.428,0.4
			c1.028-0.479,2.007-1.061,3.35-0.7c-1.063,1.152-2.315,1.74-3.736,1.664c-1.67-0.09-1.739,0.778-1.412,1.969
			c0.24,0.874,0.656,1.658,1.442,2.205c0.419,0.291,1.215,0.511,0.639,1.256c-0.81,1.048-0.067,1.611,0.58,2.24
			c1.105,1.075,2.099,2.305,3.332,3.205c6.145,4.49,11.227,11.012,20.384,10.439c-1.743,1.93-0.669,3.202,0.375,4.455
			c0.642,0.771,1.129,1.387,0.483,2.54c-0.546,0.976-2.256,1.739-1.527,2.927c0.874,1.424,2.38-0.186,3.611,0.065
			c0.08,0.017,0.16,0.033,0.36,0.075c0.219,7.3,0.16,14.626-0.035,21.953c-0.033,1.229-0.643,1.462-1.799,1.679
			c-5.119,0.962-10.414,0.954-15.345,3.038c-2.377,1.004-6.141-1.925-6.34-4.484c-0.183-2.354-0.421-4.711-0.81-7.037
			c-0.774-4.638-5.654-8.261-10.439-7.684c-1.937,0.233-2.726,0.039-2.549-2.277c0.357-4.693-1.752-6.715-6.485-6.746
			c-0.691-0.004-1.383,0-2.36,0c0.313-0.597,0.418-0.885,0.594-1.12c1.742-2.337,1.103-4.067-1.813-4.63
			c-1.514-0.292-3.067-0.404-4.609-0.514c-0.671-0.049-1.276-0.054-1.691-0.69c-1.392-2.135-2.798-4.261-4.252-6.472
			c1.322-0.422,1.984,0.182,2.657,0.796c0.764,0.698,1.55,1.002,2.658,0.604c3.618-1.302,6.977-0.226,9.991,1.698
			c2.174,1.387,4.249,1.543,6.457,0.593c1.858-0.8,3.595-1.876,5.427-2.741c1.084-0.511,1.19-1.176,1.021-2.31
			c-0.862-5.801-1.688-11.61-2.345-17.438c-0.468-4.148-0.943-8.279-3.059-11.963c-0.872-1.518-1.371-2.697,0.601-3.646
			c0.751-0.362,0.545-1.124,0.534-1.746c-0.087-4.65-0.49-9.271-1.249-13.863c-0.204-1.233-0.785-1.413-1.853-1.136
			c-1.645,0.427-2.854,1.445-4.046,2.595c-3.64,3.512-8.007,2.408-9.429-2.329c-0.093-0.312-0.213-0.616-0.313-0.925
			c-1.299-3.976-1.461-4.084-5.631-4.131c-1.945-0.021-3.915,0.117-5.677-1.027c-0.804-0.521-1.075-1.084-0.137-1.564
			c1.498-0.766,1.799-2.111,2.054-3.545c0.167-0.937,0.688-1.721,1.51-2.125c3.207-1.579,6.503-2.934,10.029-3.656
			c3.805-0.78,7.652,0.199,11.464-0.301c0.885-0.116,1.628-0.151,2.185-1.152c1.392-2.498,3.719-3.791,6.47-4.363
			c0.714-0.148,1.447-0.182,1.73-1.084c0.679-2.168,3.167-3.622,2.382-6.411c-0.254-0.902,0.853-1.048,1.494-1.285
			c3.233-1.193,6.531-1.227,9.838-0.362c3.736,0.978,7.228,2.459,10.233,4.978c1.706,1.431,3.615,2.34,5.79,0.971
			c3.099-1.954,6.389-1.645,9.69-0.86c2.861,0.679,5.661,1.375,8.663,0.755c2.109-0.436,4.067,0.16,6.065,1.165
			c4,2.009,8.083,1.481,11.844-0.781c2.203-1.326,2.026-2.373-0.322-3.547c-1.607-0.803-3.32-0.658-5.033-0.518
			c-0.659,0.054-1.458,0.653-1.906-0.347c-0.362-0.808-0.244-1.592,0.291-2.303c0.343-0.456,0.715-0.89,1.034-1.361
			c0.91-1.35,0.845-2.235-0.985-2.747c-5.125-1.435-10.301-1.53-15.494-0.679c-3.916,0.642-3.899,0.745-2.524,4.204
			c-2.336-0.523-4.322-1.591-6.385-2.436c-1.346-0.551-2.711-1.453-3.534,0.713c-0.256,0.674-0.877,0.505-1.467,0.378
			c-1.035-0.222-2.084-0.387-3.136-0.518c-0.912-0.113-1.915-0.55-2.29,0.94c-0.323,1.286-0.504,2.389,0.872,3.153
			c0.83,0.461,1.644,0.953,2.6,1.509c-2.033,1.181-3.748,0.956-5.234-0.572c-3.004-3.087-6.499-4.461-10.924-4.372
			c-4.464,0.089-8.934-0.838-13.021-2.799c-2.665-1.279-2.76-3.198-0.52-5.045c0.437-0.36,1.146-0.624,1.099-1.223
			c-0.16-2.04,1.388-1.969,2.67-2.151c-0.063-1.604-1.742-1.983-2.075-3.328c-0.309-1.246-1-3.078-2.18-2.879
			c-1.351,0.226-1.261,2.187-1.351,3.513c-0.084,1.267-0.182,2.608-1.407,3.17c-1.329,0.609-2.523-0.254-3.565-1.052
			c-1.139-0.872-1.261-1.979-0.625-3.259c0.298-0.601,0.73-1.7-0.391-1.647c-2.531,0.118-4.356-1.713-6.65-2.063
			c-1.469-0.225-3.098-0.694-4.337,0.719c-0.997,1.138-1.809,2.391-1.216,3.969c0.686,1.824,2.126,2.802,4.011,3.183
			c0.703,0.142,2.093,0,2.008,0.419c-0.465,2.303,1.271,1.115,1.918,1.218c1.356,0.218,2.763,0.14,4.149,0.152
			c2.06,0.019,3.2,0.886,3.16,3.097c-0.042,2.345,1.141,3.969,3.167,5.103c3.267,1.828,3.338,3.221,0.385,5.496
			c-1.148,0.884-2.435,1.302-3.873,1.215c-4.542-0.275-8.504-1.953-11.987-4.876c-1.189-0.999-0.868-1.727,0.191-2.414
			c1.019-0.661,2.148-1.159,3.134-1.863c1.371-0.98,1.579-1.937-0.197-2.833c-2.376-1.198-4.906-1.549-7.354-0.772
			c-3.483,1.106-6.886,2.116-10.572,1.134c-0.404-0.108-1.003,0.09-1.373,0.347c-2.604,1.801-5.318,1.129-8.226,0.582
			c0.975-1.214,2.06-1.973,3.314-2.278c3.551-0.862,5.966-2.629,8.486-5.643c2.625-3.14,3.279-5.085,1.65-8.623
			c-0.978-2.125-0.143-4.557,3.013-4.357c1.298,0.083,2.608-0.042,3.913-0.055c2.696-0.027,5.143,0.47,6.949,2.792
			c0.674,0.867,1.617,1.564,2.853,1.701c6.829,0.751,13.473,0.003,19.947-2.309c1.138-0.407,2.068-1.04,2.538-2.135
			c0.625-1.46,0.689-2.791-1.469-2.812c-2.525-0.024-5.06-0.081-7.576,0.085c-1.694,0.112-3.111,0.848-3.59,2.768
			c-0.301,1.202-1.222,1.749-2.441,2.092c-3.734,1.052-11.647-1.674-14.185-5.017c0.714-0.669,1.495-0.457,2.28-0.181
			c3.51,1.23,6.713-0.131,9.947-1.188c1.72-0.563,1.076-2.344,1.719-3.473c0.417-0.731-0.323-0.997-0.84-1.161
			c-3.737-1.187-7.502-2.59-11.125,0.275c-0.531,0.42-1.105,0.591-1.545,0.224c-1.817-1.515-3.518-0.183-5.506-0.125
			c1.022,1.452,1.855,2.636,2.701,3.838c-1.556,1.058-3.169,1.564-4.875,1.822c-1.321,0.2-3.118,1.104-3.827-0.125
			c-0.758-1.313-0.319-3.196,0.46-4.706c0.622-1.205,1.666-1.96,2.88-2.531c1.763-0.828,3.426-1.953,5.266-2.51
			c2.66-0.806,2.092-2.408,1.563-4.258c-0.225-0.786-0.59-1.033-1.327-1.108c-2.357-0.24-4.717-0.427-7.075-0.103
			c-3.708,0.51-4.497,1.942-2.657,5.203c0.725,1.285,0.983,2.417-0.303,3.123c-1.44,0.79-2.148-0.608-2.824-1.591
			c-0.267-0.387-0.466-0.913-0.468-1.376c-0.014-3.746-1.349-7.935,3.438-10.09c1.232-0.555,1.786-1.685,1.269-3.046
			c-0.52-1.37-1.563-2.004-3.061-1.914c-2.683,0.161-5.381,0.166-8.047,0.46c-1.661,0.184-2.917,1.396-2.974,3.036
			c-0.053,1.551,0.674,3.118,2.617,3.201c2.415,0.104,3.207,1.498,3.208,3.628c0.001,1.464-0.017,2.932-0.126,4.392
			c-0.106,1.435-0.975,1.993-2.351,1.639c-1.244-0.321-2.695-0.499-2.456-2.373c0.113-0.889,0.327-1.773,0.357-2.665
			c0.025-0.734,0.659-1.692-0.395-2.166c-1.057-0.474-2.181-0.691-3.176,0.231c-0.239,0.222-0.459,0.468-0.72,0.66
			c-1.174,0.864-2.222,1.926-3.36-0.247c-0.672-1.283-3.537-1.416-3.992-0.469c-1.797,3.745-1.37,5.375,2.379,7.519
			c1.738,0.994,0.73,1.735-0.069,2.216c-1.251,0.752-2.27,0.117-3.111-1.012c-0.852-1.141-6.62-1.387-7.529-0.391
			c-0.134,0.146-0.174,0.404-0.204,0.618c-0.446,3.223,0.519,4.724,3.682,5.715c1.092,0.343,2.203,0.608,3.364,0.495
			c5.517-0.538,10.557-2.832,15.743-4.501c2.757-0.887,5.468-0.61,6.511,1.984c0.754,1.876,0.65,3.862,0.07,5.75
			c-0.366,1.192-1.2,2.254-2.651,2.116c-1.327-0.126-1.833-1.189-2.08-2.383c-0.115-0.558-0.201-1.137-0.42-1.657
			c-0.332-0.786-1.046-0.939-1.832-0.901c-0.515,0.024-0.855,0.127-1.071,0.724c-1.056,2.92,0.446,5.988,3.393,6.75
			c1.103,0.285,2.227,0.489,3.335,0.756c0.881,0.211,1.538,0.642,1.234,1.702c-0.264,0.926-0.7,1.671-1.882,1.422
			c-2.813-0.594-5.681-0.407-8.521-0.614c-1.568-0.115-3-0.75-4.182-1.831c-0.398-0.365-1.095-0.781-0.657-1.395
			c1.591-2.227-0.365-2.71-1.659-3.472c-2.277-1.339-4.775-2.104-7.378-2.402c-3.162-0.362-6.206-0.505-8.463,2.619
			c-0.835,1.156-0.683,1.438,0.223,2.168c3.371,2.722,7.195,3.668,11.441,3.112c1.748-0.229,3.402-0.083,4.876,1.032
			c0.765,0.579,1.237,1.018,0.094,1.748c-1.85,1.183-3.568,2.579-5.451,3.702c-3.848,2.295-8.502,1.888-11.597-0.902
			c-0.786-0.708-1.977-1.525-1.789-2.478c0.197-0.997,1.666-1.016,2.658-1.284c0.313-0.085,0.648-0.098,0.956-0.197
			c0.785-0.251,1.757-0.536,1.674-1.497c-0.076-0.877-1.072-0.776-1.771-0.928c-0.936-0.205-1.935-0.108-2.761-0.813
			c-3.697-3.157-7.668-3.121-11.178,0.17c-0.658,0.616-1.312,0.504-2.012,0.568c-5.27,0.477-10.596,0.43-15.791,1.605
			c-1.101,0.249-2.899-0.082-3.079,1.184c-0.187,1.326,1.18,2.43,2.325,3.234c0.718,0.506,1.557,0.885,2.394,1.169
			c3.107,1.058,6.256,1.711,9.589,1.167c1.14-0.186,2.949-0.276,3.071,1.092c0.126,1.396-1.583,1.485-2.819,1.622
			c-4.646,0.517-9.284-0.108-13.926-0.069c-2.116,0.018-4.138,0.353-6.001,1.572c0.745,0.724,1.544,0.947,2.343,0.778
			c4.362-0.921,8.779-0.519,13.153-0.404c4.823,0.126,9.463-1.091,14.1-1.857c2.988-0.493,5.892-1.502,8.783-0.536
			c6.283,2.1,11.662,0.294,16.812-3.19c2.066-1.397,4.355-2.212,6.877-2.138c1.134,0.033,2.855-0.319,3.146,0.874
			c0.309,1.266-0.707,2.632-1.902,3.466c-0.586,0.408-1.291,0.682-1.979,0.899c-1.395,0.441-2.797,0.883-4.226,1.182
			c-4.336,0.907-6.945,3.703-8.481,7.661c-0.886,2.284-1.876,4.535-3.314,6.493c-1.04,1.416-0.718,2.308,0.189,3.583
			c3.212,4.516,6.115,9.226,8.004,14.481c1.724,4.794,1.524,5.6-2.329,8.794c-1.502,1.245-2.211,2.604-2.303,4.725
			c-0.194,4.43,1.674,9.263-2.056,13.161c-0.15,0.157-0.248,0.476-0.207,0.688c0.392,2.022-1.095,2.648-2.457,3.395
			c-0.884,0.484-1.837,0.699-2.086,2.08c-0.588,3.257-2.259,4.321-4.87,2.457c-2.9-2.072-5.756-3.992-8.906-5.719
			c-2.946-1.615-5.624-3.025-8.987-2.969c-0.764,0.014-1.515,0.067-2.002,0.695c-1.773,2.285-3.771,4.443-4.947,7.108
			c-0.437,0.99-1.062,1.602-1.853,2.152c-3.23,2.248-3.597,3.384-2.246,7.179c0.571,1.603,1.556,3.173,1.405,4.876
			c-0.23,2.604,1.33,3.884,3.163,5.021c1.885,1.171,4.003,1.708,6.558,1.788c-1.616,2.379-0.793,4.706-0.543,7.03
			c0.492,4.576,1.134,9.146-0.868,13.6c-0.545,1.212-0.916,1.907-2.411,1.468c-1.916-0.562-3.757-0.321-5.056,1.42
			c-0.983,1.318-2.56,2.07-3.526,3.133c-1.681,1.847-4.346,2.595-5.352,5.2c-0.842,2.183-2.762,4.071-3.148,6.275
			c-0.48,2.738-3.056,5.395-0.883,8.439c0.088,0.123-0.152,0.615-0.36,0.796c-2.09,1.815-2.182,4.228-2.134,6.728
			c0.049,2.573,0.037,5.158-1.456,7.44c0,0.816,0,1.632,0,2.448c0,1.306,0,2.61,0,3.917c0.196-0.014,0.392-0.027,0.588-0.042
			c0.977-0.013,1.954-0.037,2.931-0.037c84.214-0.001,168.429-0.001,252.643-0.001c0.972,0,1.943,0,3.167,0
			c-2.121-4.801,0.437-10.093-2.307-14.663c-0.279-0.465-0.002-1.278,0.054-1.927c0.045-0.53,0.313-1.09,0.891-0.878
			c3.171,1.168,3.039-1.463,3.502-3.13c1.875-6.747,0.048-13.036-2.637-19.174c-1.688-3.859-2.871-7.709-1.887-12.051
			c0.682-3.014,2.363-5.751,2.396-8.914c0.023-2.314,0.828-4.443,2.297-6.044c3.674-3.999,5.295-8.912,6.745-13.924
			c2.115-7.313,6.363-13.097,12.285-17.776c3.772-2.98,7.462-6.067,11.181-9.115c1.071-0.877,1.983-2.238,3.199-2.598
			c4.863-1.438,8.466-4.761,12.342-7.702c0.84-0.638,1.688-1.29,2.865-1.088c1.914,0.328,3.413-0.578,4.976-1.531
			c4.848-2.958,9.583-6.217,15.158-7.685c13.826-3.641,27.89-3.441,41.992-2.334c1.333,0.104,2.322,0.64,3.078,1.943
			c1.07,1.84,2.461,3.676,5.046,2.219c2.252-1.269,3.731-0.578,5.079,1.463c1.305,1.977,2.563,1.983,4.021,0.166
			c0.626-0.779,1.17-1.248,2.223-0.962c3.31,0.897,6.526,1.987,9.534,3.687c1.011,0.571,1.106,1.075,0.762,2.122
			c-0.404,1.221-0.555,2.54-0.25,3.861c0.239,1.038,0.704,1.821,1.834,2.015c1.097,0.188,1.842-0.257,2.427-1.206
			c0.611-0.994,1.023-2.155,2.028-2.94c1.395,1.527,0.836,3.741,2.309,5.151c1.786,1.712,3.408,1.625,4.197-0.649
			C448.077,488.293,448.773,488.709,449.488,488.871z M369.114,416.797c0.546-0.093,1.687-0.609,1.585,0.648
			c-0.085,1.055-0.6,3.018-1.438,2.653c-2.621-1.143-5.722-0.762-8.125-2.514C363.849,417.277,366.494,417.247,369.114,416.797z
			 M359.206,420.933c1.046,0.338,2.539,0.058,2.762,1.713c0.118,0.882-0.563,1.089-1.274,0.991
			c-1.279-0.177-2.664-0.472-3.016-1.873C357.5,421.058,358.529,421.012,359.206,420.933z M329.062,457.582
			c-0.323,0.831-0.929,0.945-1.763,0.823c-4.29-0.625-8.435-6.144-7.829-10.446c0.091-0.648,0.487-0.999,0.94-1.343
			c2.102-1.595,4.461-2.644,7.012-3.272c0.575-0.142,1.161-0.238,1.199,0.665c0.093,2.188,0.773,4.125,2.371,5.706
			c0.232,0.231,0.185,0.745,0.233,0.973C330.726,453.182,329.917,455.389,329.062,457.582z M334.058,460.18
			c-1.549-1.203-0.944-2.406-0.021-3.557c1.166-1.458,1.857,0.009,2.524,0.588c1.66,1.442,3.067,3.115,4.042,5.57
			C337.922,462.491,335.893,461.606,334.058,460.18z M289.054,485.83c0.492,0.053,1.187-0.26,1.354,0.547
			c-0.229,0.785-0.76,1.03-1.49,1.01c-0.622-0.017-1.376-0.279-1.364-0.781C287.573,485.84,288.394,485.76,289.054,485.83z
			 M282.729,470.934c0.107-0.744,1.016-0.536,1.587-0.625c0.572,0.051,1.388-0.012,1.332,0.673
			c-0.058,0.723-0.885,0.806-1.539,0.773C283.507,471.725,282.6,471.821,282.729,470.934z M275.909,482.952
			c0.478,0.161,1.007,0.301,0.795,0.947c-0.181,0.549-0.561,0.939-1.211,0.963c-0.489,0.018-0.755-0.203-0.738-0.677
			C274.78,483.448,275.205,483.054,275.909,482.952z M272.521,472.555c0.062-0.167,0.557-0.28,0.83-0.243
			c0.516,0.068,0.878,0.384,0.904,0.961c-0.236,0.475-0.692,0.422-1.038,0.325C272.747,473.465,272.316,473.119,272.521,472.555z
			 M152.972,530.363c-0.366,0.022-0.587-0.174-0.704-0.502c-0.179-0.504,0.249-0.468,0.506-0.516
			c0.335-0.063,0.617,0.058,0.735,0.49C153.547,530.169,153.338,530.341,152.972,530.363z M155.978,531.377
			c-0.369-0.151-0.833-0.568-0.564-0.893c0.925-1.121,2.198-0.582,3.719-0.664C158.263,531.45,157.318,531.924,155.978,531.377z
			 M192.991,461.272c0.568,0.049,1.566-0.229,1.467,0.71c-0.083,0.792-1.008,0.914-1.822,0.923
			c-0.556-0.086-1.563,0.082-1.525-0.687C191.158,461.271,192.188,461.204,192.991,461.272z M185.41,459.88
			c0.638,0.064,1.693-0.294,1.701,0.731c0.005,0.562-0.887,0.834-1.571,0.823c-1.098-0.019-2.235,0.151-3.442-0.373
			C183.179,459.919,184.274,459.766,185.41,459.88z M97.837,421.908c-0.905-0.05-1.819-0.378-1.758-1.52
			c0.056-1.038,0.867-1.218,2.355-1.085c0.263,0.041,1.464,0.116,1.485,1.076C99.942,421.383,98.898,421.967,97.837,421.908z
			 M66.093,443.888c-1.174-0.365-1.744-0.777-0.689-2.353c1.523-2.278,2.986-2.162,4.954-1.04c1.172,0.669,2.413,1.232,3.468,2.4
			C71.277,444.562,68.716,444.704,66.093,443.888z M109.728,453.896c0.574-0.422,1.212,0.211,1.66,0.646
			c1.803,1.748,4.237,1.317,6.378,1.861c1.729,0.44,3.501,0.69,4.921,1.879c0.341,0.285,0.893,0.534,0.738,1.119
			c-0.128,0.486-0.636,0.416-1.015,0.485c-1.589,0.291-3.18,0.566-4.081,0.726c-3.848,0.023-7.793-2.324-8.623-4.699
			C109.466,455.226,109.06,454.389,109.728,453.896z M106.156,457.707c0.623-0.276,1.216-0.224,1.742,0.305
			c-0.549,0.831-1.152,0.885-1.798,0.281C106.006,458.206,106.061,457.749,106.156,457.707z M103.5,475.066
			c-0.153,1.594-0.389,3.181-0.631,5.104c-1.451-1.306-2.245-2.569-2.526-4.014c-0.868-4.448-3.305-8.083-5.766-11.739
			c-1.111-1.651-2.735-3.415-1.292-5.525c1.479-2.164,3.789-1.234,5.603-0.618c4.034,1.371,8.457,1.416,12.275,2.908
			c4.547,1.777,8.842,1.404,13.342,1.075c2.398-0.176,4.673,0.315,6.843,1.425c1.2,0.614,1.309,1.241,0.548,2.259
			c-1.153,1.541-2.616,2.337-4.579,2.355c-3.583,0.033-7.143-0.493-10.746-0.23c-2.016,0.147-3.797,0.669-5.536,1.608
			c-1.78,0.959-3.417,2.194-5.43,2.717C104.286,472.733,103.631,473.694,103.5,475.066z M185.643,550.718
			c0.728-0.103,1.219,0.301,1.255,1.104c-0.176,0.686-0.197,1.529-1.176,1.563c-0.805,0.026-1.462-0.33-1.442-1.229
			C184.297,551.347,184.881,550.824,185.643,550.718z M184.015,576.825c-1.219,0.009-1.989-0.772-2.138-1.854
			c-0.125-0.914,0.809-0.568,1.229-0.475c1.015,0.227,1.985,0.621,2.263,1.829C185.163,577.158,184.482,576.821,184.015,576.825z
			 M186.827,572.481c-1.77,0.391-3.55,0.317-5.335,0.032c-0.875-0.139-1.262-0.548-1.248-1.455c0.035-2.192,0.011-4.385,0.011-6.577
			c0.028,0.001,0.055,0.001,0.082,0.001c0-2.113,0.025-4.229-0.01-6.342c-0.019-1.109,0.359-1.682,1.56-1.568
			c1.293,0.121,2.594,0.227,3.892,0.234c1.163,0.008,1.526,0.628,1.63,1.654c0.427,4.205-0.18,8.469,0.727,12.648
			C188.359,572.144,187.525,572.325,186.827,572.481z M200.613,551.673c0.084-0.685,0.528-1.183,1.303-1.223
			c0.79-0.083,0.964,0.372,0.97,1.04c0.006,0.762-0.399,1.021-1.077,0.941C201.3,552.371,200.5,552.592,200.613,551.673z
			 M201.467,572.584c0.637-1.108,1.411-0.921,2.521-0.441C203.071,572.989,202.375,573.089,201.467,572.584z M211.416,569.18
			c-0.082,0.97-0.377,1.394-1.462,1.38c-3.743-0.048-7.475,0.206-11.225-0.354c-1.612-0.241-2.066-1-2.175-2.265
			c-0.328-3.806-0.582-7.618-0.873-11.529c4.84-0.469,9.628-0.322,14.419-0.168c0.884,0.028,1.029,0.471,1.104,1.226
			C211.595,561.369,211.747,565.267,211.416,569.18z M224.166,574.812c0.791-2.359,2.241-2.733,4.248-2.162
			C227.729,574.812,226.216,575.188,224.166,574.812z M229.883,569.512c0.009,0.884-0.454,0.991-1.155,1.182
			c-1.377,0.373-2.757,0.222-4.133,0.238c-3.393,0.04-3.408,0.022-3.104,3.455c0.079,0.89,0.301,1.766,0.417,2.654
			c0.109,0.821,0.104,1.627-0.579,2.266c-0.372,0.348-0.769,0.628-1.296,0.536c-0.693-0.119-0.501-0.729-0.564-1.164
			c-0.598-4.114-0.882-8.255-0.938-12.411c-0.025-1.792-0.005-3.586-0.005-5.377c0.073,0,0.145-0.001,0.217-0.001
			c0-3.501,0.048-7.003-0.018-10.503c-0.041-2.204,1.069-2.251,2.611-1.525c0.842,0.397,1.512,0.731,2.391-0.055
			c0.809-0.723,1.495,0.092,2.101,0.589c0.672,0.552,0.581,1.189,0.269,1.97c-1.074,2.685-1.041,2.762,1.808,2.896
			c1.021,0.049,1.355,0.332,1.504,1.352C230.087,560.234,229.833,564.875,229.883,569.512z M262.07,487.661
			c1.053-0.422,2.104-0.81,2.937-1.644c0.407-0.409,0.723-1.313,1.515-0.773c0.584,0.396,0.092,1.061-0.009,1.577
			c-0.325,1.675-0.865,3.303-1.751,4.752c-0.945,1.547-1.461,3.003-0.248,4.636c0.361,0.488,0.406,1.167-0.008,1.586
			c-0.57,0.577-1.047-0.125-1.434-0.413c-1.996-1.48-3.642-3.221-3.832-5.587C259.262,489.533,260.349,488.352,262.07,487.661z
			 M253.272,486.27c0.665-1.246,1.759-1.087,2.979-0.897c-0.41,1.419-1.242,1.893-2.534,1.565
			C253.413,486.861,253.073,486.642,253.272,486.27z M258.678,505.158c-2.983-2.998-5.906-6.057-9.174-8.754
			c-0.626-0.517-0.973-1.041-0.429-1.857c0.786-1.178,1.583-2.289,3.214-2.285c1.586,0.196,2.927,0.972,4.117,1.969
			c2.512,2.107,4.54,4.655,6.395,7.344c1.006,1.459,1.063,2.908-0.285,4.166C261.051,507.107,259.733,506.219,258.678,505.158z
			 M242.765,534.637c0.123-0.785,0.695-1.217,1.817-1.282c0.175-0.018,0.525,0.176,0.441,0.675c-0.13,0.763-0.482,1.354-1.426,1.266
			C243.148,535.252,242.698,535.063,242.765,534.637z M279.143,582.155c-0.389,1.019-1.076,1.218-2.077,1.207
			c-4.479-0.044-8.959-0.019-13.438-0.019c-6.847,0.274-13.662-0.035-20.458-0.996c-2.361-0.334-3.767-2.101-5.612-3.166
			c-0.916-0.528-0.401-2.258-0.41-3.442c-0.051-6.594,0.157-13.19-0.228-19.783c-0.084-1.448,0.001-2.963,0.344-4.365
			c0.522-2.145,1.458-3.773,4.299-3.597c2.529,0.158,5.05-0.74,7.059-2.338c3.75-2.982,7.527-5.967,10.119-10.137
			c1.158-1.862,3.186-2.459,5.147-2.702c1.999-0.247,2.188,1.686,2.529,3.011c0.789,3.066,1.367,6.189,2.053,9.283
			c0.532,2.402,1.56,4.549,2.896,6.646c3.5,5.496,6.133,11.487,8.494,17.51C281.473,573.383,280.763,577.924,279.143,582.155z
			 M363.499,466.479c-3.249,0.71-6.12,2.321-9.47,3.567c0.854-3.656,2.604-6.475,4.909-9.011c0.605-0.667,1.12-0.389,1.677-0.009
			c1.137,0.777,2.308,1.509,3.396,2.348C365.494,464.516,365.342,466.076,363.499,466.479z M371.13,465.778
			c0.261-0.039,0.543,0.062,0.931,0.125c-0.227,0.301-0.324,0.528-0.497,0.638c-0.31,0.197-0.611,0.083-0.692-0.272
			C370.838,466.123,371.015,465.796,371.13,465.778z M366.453,471.66c2.417-1.298,4.958-1.737,8.201-1.562
			C371.788,472.016,369.149,472.053,366.453,471.66z M410.431,466.104c-1.604,0.218-3.214,0.493-4.826,0.524
			c-3.852,0.076-7.706,0.024-11.56,0.024c-0.032-0.345-0.065-0.688-0.098-1.033c4.462-2.214,9.238-3.25,14.213-3.34
			c1.787-0.032,2.516,1.605,3.232,2.922C411.856,466.051,410.916,466.038,410.431,466.104z"/>
		<path fill-rule="evenodd" clip-rule="evenodd" d="M421.527,534.34c-5.571-2.277-11.251-2.438-16.93-0.525
			c-1.904,0.642-3.546-0.205-5.152-0.668c-0.71-0.205-0.175-2.077-0.152-3.188c0.075-3.684-0.116-7.34-1.093-10.91
			c-0.754-2.754-1.686-5.432-3.53-7.705c-0.791-0.973-1.793-1.269-2.812-0.791c-1.03,0.484-0.306,1.42-0.167,2.164
			c0.626,3.357,1.61,6.645,1.923,10.063c0.228,2.492-0.36,5.076-1.8,7.058c-3.079-9.15-7.507-16.979-17.244-20.016
			c2.325,2.063,4.801,4.005,7.375,5.808c3.623,2.538,5.537,6.108,6.391,10.312c0.151,0.747,0.854,1.905-0.278,2.376
			c-0.934,0.389-2.091,0.459-3.052-0.201c-0.396-0.271-0.779-0.617-1.044-1.012c-0.456-0.684-0.905-0.727-1.632-0.369
			c-2.338,1.152-4.736,0.789-7.156,0.205c-2.567-0.619-5.172-1.004-8.037-0.838c1.956,2.086,4.524,3.142,7.803,3.298
			c2.292,0.108,4.541,0.413,6.656,1.36c3.325,1.488,4.472,3.313,3.896,6.156c-0.989,4.884-1.706,5.373-6.007,5.752
			c-5.48,0.482-11.119,0.203-16.284,2.619c-2.136,1-4.164,2.223-6.663,1.998c-0.91-0.082-1.202,0.268-0.667,1.145
			c1.165,1.906,0.485,3.279-1.661,3.598c-1.035,0.152-2.067,0.426-3.056,0.773c-0.554,0.194-1.403,0.369-1.259,1.216
			c0.11,0.644,0.616,1.181,1.285,1.362c0.94,0.254,1.936,0.321,2.857,0.625c1.577,0.52,2.528,3.51,1.624,5.471
			c-0.731,1.585-2.198,1.047-3.346,0.609c-1.024-0.393-1.924-0.412-3.232-0.189c1.154,1.492,2.41,2.39,3.824,2.55
			c5.156,0.586,8.825,3.305,11.612,7.499c0.718,1.079,1.663,2.011,2.347,3.108c0.688,1.104,1.232,2.318,1.163,3.79
			c-3.887-1.155-6.108-5.158-10.513-5.31c1.191,1.678,2.672,2.658,4.231,3.537c1.071,0.604,2.135,1.224,2.849,2.253
			c0.433,0.622,1.466,1.232,1.005,1.978c-0.579,0.937-1.749,1.107-2.854,0.778c-0.464-0.138-0.917-0.347-1.34-0.587
			c-3.757-2.13-7.848-3.452-12.104-3.287c-4.725,0.185-8.071-1.865-11.053-5.098c-0.771-0.835-1.622-1.595-2.448-2.376
			c-2.227-2.104-4.729-3.715-7.784-4.338c-0.39-0.079-0.845-0.347-1.125,0.046c-0.332,0.467,0.018,0.92,0.281,1.328
			c0.475,0.733,1.978,0.709,1.531,2.236c-7.172-0.227-14.109-1.656-20.906-4.155c1.353,2.697,3.575,4.33,6.179,5.314
			c10.529,3.984,21.101,7.856,31.65,11.789c0.83,0.31,1.612,0.755,2.407,1.157c1.376,0.7,1.76,1.482,0.062,2.233
			c-1.71,0.755-2.589,2.096-3.022,3.843c-0.135,0.537-0.302,1.094-0.867,1.415c-3.636,2.069-5.445,6.109-8.961,8.314
			c-1.159,0.727-0.858,1.903-0.618,2.867c0.28,1.133,1.372,0.525,2.064,0.528c15.255,0.037,30.51,0.028,45.765,0.028
			c6.608,0,13.215,0.014,19.822-0.022c0.638-0.004,1.378,0.374,1.909-0.563c1.483-2.621,0.664-6.546-1.957-8.083
			c-1.187-0.694-1.765-1.149-0.737-2.489c0.868-1.132,0.451-1.754-1.065-1.877c-2.35-0.189-4.679-0.637-7.021-0.925
			c-1.028-0.126-1.578-0.364-1.429-1.653c0.427-3.719,0.973-7.415,1.544-11.116c0.521-3.375,1.9-5.505,5.458-5.895
			c1.624-0.179,2.761-0.818,2.204-2.813c-0.144-0.512-0.148-1.134,0.424-1.549c4.385-3.18,8.198-7.28,13.793-8.504
			c0.586-0.128,1.367,0.078,1.65-0.841c-5.49-1.371-10.841-0.781-15.984,1.293c-2.011,0.811-2.865,0.236-3.405-1.555
			c-0.187-0.619-0.283-1.264-0.422-1.896c-0.998-4.569,2.465-8.688,1.356-13.297c-0.12-0.501,0.417-1.207,0.744-1.763
			c1.348-2.293,3.458-3.598,5.892-4.483c2.889-1.053,5.878-1.098,8.906-1.113c5.083-0.026,9.236,1.566,11.971,6.109
			c0.685,1.139,1.558,2.191,3.289,2.378C428.174,538.311,425.299,535.883,421.527,534.34z M351.921,581.266
			c3.09,0.145,5.294,1.158,8.1,2.678C356.378,584.864,354.302,583.483,351.921,581.266z M370.406,570.41
			c-0.018,1.356-0.669,1.423-1.435,0.649c-1.762-1.778-3.499-3.545-5.97-4.341c-0.202-0.065-0.517-0.376-0.484-0.484
			c0.521-1.726,0.953-3.457,1.276-5.242c0.151-0.833,1.641-0.871,2.604-0.971c3.679-0.376,3.93-0.139,3.993,3.573
			c0.011,0.647,0.002,1.295,0.002,1.941c0.076,0.002,0.151,0.004,0.228,0.006C370.545,567.165,370.427,568.787,370.406,570.41z
			 M374.19,564.746c0.263-4.593,0.472-4.891,3.318-4.731c1.591,0.088,3.131,0.153,2.85,2.544c-0.368,3.134-2.18,5.477-4.343,5.27
			C373.722,567.608,373.951,566.037,374.19,564.746z M375.141,577.285c0.24-1.158,1.179-1.455,2.172-1.637
			c0.579-0.105,0.958,0.072,0.892,0.767c-0.234,1.09-0.95,1.656-2.035,1.763C375.547,578.239,374.964,578.134,375.141,577.285z
			 M378.585,581.555c-0.479,0.007-1.361,0.231-1.086-0.737c0.344-1.207,1.059-2.208,2.448-2.366c0.616-0.07,1.113,0.19,1.132,1.001
			C380.813,580.77,379.996,581.535,378.585,581.555z M386.321,556.574c1.235-0.071,1.974,0.509,2.199,2.474
			c0.063,0.45-0.711,0.626-1.567,0.72c-1.259,0.136-2.085-0.533-2.303-1.645C384.429,556.98,385.359,556.63,386.321,556.574z
			 M388.924,564.146c-0.137,1.704-0.333,3.945-2.39,3.838c-2.04-0.107-1.82-2.456-1.928-4.082c-0.086-1.298,0.093-2.365,1.939-2.229
			C388.217,561.794,389.242,562.211,388.924,564.146z M391.255,542.541c-0.548-0.74-0.802-1.578-0.528-2.49
			c0.096-0.32,0.416-0.571,0.751-0.414c0.942,0.444,0.387,1.435,0.699,2.127c0.154,0.342,0.12,0.769,0.24,1.682
			C391.732,542.922,391.431,542.778,391.255,542.541z"/>
		<path fill-rule="evenodd" clip-rule="evenodd" d="M938.123,421.246c-0.95,0.002-2.32-0.308-2.396,0.919
			c-0.078,1.261,1.329,1.933,2.345,2.482c0.945,0.511,2.134,0.203,2.354-0.925c0.433-2.208,1.938-2.757,3.805-2.985
			c-0.182-0.128-0.363-0.258-0.544-0.388C942.016,421.79,940.021,421.24,938.123,421.246z"/>
		<path fill-rule="evenodd" clip-rule="evenodd" d="M723.71,568.908c0.764-0.058,1.574,0.563,2.351-0.197
			C725.218,568.378,724.45,568.276,723.71,568.908z"/>
		<path fill-rule="evenodd" clip-rule="evenodd" d="M735.552,569.538c-0.228,0.017-0.449,0.143-0.673,0.219
			c0.169,0.252,0.339,0.505,0.552,0.822c0.286-0.187,0.582-0.273,0.622-0.426C736.141,569.807,735.969,569.508,735.552,569.538z"/>
	</g>
</g>
</svg>
