<svg version="1.1" x="0" y="0" width="100%" height="100%" viewBox="0 0 1213.9698231009363 500" xmlns="http://www.w3.org/2000/svg" xmlns:xlink="http://www.w3.org/1999/xlink">
  <defs>
    <linearGradient id="linear" x1="50%" y1="0%" x2="50%" y2="100%">
      <stop offset="0%" style="stop-color:#9f9f9f;stop-opacity:1;"/>
      <stop offset="100%" style="stop-color:#9f9f9f;stop-opacity:1;"/>
    </linearGradient>
  </defs>
  <path d="M 1211.9797086368364 249.99999999999994 L 1211.8880730347787 254.60039488176466 L 1211.6131936831878 259.199396186667 L 1211.1551375688186 263.7956103859186 L 1210.5137986516252 268.38763733593413 L 1209.6875687968545 272.97401129578077 L 1208.6682370623294 277.5529079536647 L 1207.426899925077 282.12113417634095 L 1205.8833062758406 286.67144605530666 L 1203.8506458008833 291.18673009397946 L 1200.9514574786997 295.6293405753526 L 1196.5104164260738 299.9244259276355 L 1189.4484981842352 303.9381172992143 L 1178.2309275263485 307.4557582994841 L 1160.9517282217425 310.171995811526 L 1135.6472843388015 311.7111124828387 L 1100.8766755184608 311.69547370734995 L 1056.4522047931878 309.8624501288667 L 1003.9959667266439 306.19376661534335 L 946.9172285828153 300.9877620693221 L 889.6415519995144 294.8145508959669 L 836.3971202014484 288.36018767712335 L 790.1742153629548 282.23961999469356 L 752.3156065420902 276.8710028826529 L 722.7444054273734 272.44965252819264 L 700.5127258698762 268.99674369064195 L 684.3417788813961 266.43397179183114 L 672.9890503324284 264.6485317960646 L 665.4320684699761 263.53591976843035 L 660.9273464290455 263.0233272118321 L 659.0076426633229 263.08147509272305 L 659.4606217887066 263.7320634432268 L 662.3109580327437 265.05556411383395 L 667.8123987298304 267.2014676696043 L 676.4442978778711 270.4001593531417 L 688.8945822746216 274.9713560304468 L 705.9959827133988 281.3176433604873 L 728.5693679840949 289.8841804310794 L 757.1344546891822 301.06297556120876 L 791.5025517554897 315.0344619344761 L 830.3814739584311 331.58128576037547 L 871.2429114920525 349.9667054622965 L 910.6857701198992 368.9900127897383 L 945.2758742988241 387.2571791711044 L 972.4936035400266 403.56209166195197 L 991.3043143584663 417.18605145721557 L 1002.1214010798524 427.98127276680816 L 1006.3150781432624 436.2494516081745 L 1005.6047471619313 442.52722138043276 L 1001.5962658610745 447.39057329303563 L 995.54865270787 451.33295907427726 L 988.3281630584238 454.7179961685371 L 980.4674221070293 457.7825827032331 L 972.2603507392607 460.664094265679 L 963.8518680573783 463.4329145906529 L 955.3052823475543 466.12020167553254 L 946.6451457739412 468.73729928924416 L 937.8804958356553 471.2871427511482 L 929.0153893122474 473.76981412418803 L 920.0527130284178 476.18468987941924 L 910.9951970146454 478.53104850563216 L 901.8455853729325 480.8081794825304 L 892.6066496848277 483.01539296255385 L 883.281184371801 485.15201667924555 L 873.8719416623228 487.2173383050023 L 864.3812075909545 489.21019844176334 L 854.8091676400045 491.127292026852 L 845.1495113997221 492.95816471225424 L 835.3803637937873 494.67372178174696 L 825.4492216102283 496.20447383096507 L 815.2526160947644 497.4056557873006 L 804.6149227538718 498.0098855359001 L 793.2758901054443 497.57539373484167 L 780.9020239498102 495.44984483462673 L 767.1399501282701 490.7846745946949 L 751.7239786066308 482.644245086989 L 734.6271224409016 470.2394492338464 L 716.2039927732956 453.25626078902854 L 697.2374899862439 432.15410075422807 L 678.8146224040104 408.24581561542686 L 662.0459954414243 383.43849854708134 L 647.7562584323096 359.71652804850254 L 636.3030186280607 338.62662634544773 L 627.5914417938708 321.00785278916175 L 621.2274244188667 307.02296588568356 L 616.6997199960169 296.37537878703 L 613.5133957977722 288.55702180366245 L 611.2549168071262 283.03366898063564 L 609.6053773894769 279.3481008805523 L 608.3262179656535 277.1615407380324 L 607.2350067061393 276.26174161018355 L 606.1798796962 276.5592059117446 L 605.0149996252737 278.08365058369725 L 603.5763558574145 280.9853060031126 L 601.6566750165135 285.53956510423905 L 598.9799291904104 292.14690445455346 L 595.1804878113581 301.3113971549746 L 589.799812167895 313.57201696000783 L 582.3225270657972 329.3593734434362 L 572.2751288462872 348.77259951886487 L 559.3897012854488 371.330179423798 L 543.7846880134312 395.82554102876963 L 526.0615818664899 420.44013572348456 L 507.2217944677357 443.15667920937574 L 488.40498957841254 462.31203026105277 L 470.5732173448126 477.0097393059028 L 454.29902635365164 487.2052032331457 L 439.73210691879774 493.49326008160995 L 426.7059962695724 496.77314582513947 L 414.8943361749037 497.95813169559 L 403.94375299494243 497.80534385384595 L 393.55374666567764 496.8594799760652 L 383.5068608566466 495.4689787004365 L 373.6659446784204 493.83341326595576 L 363.955765770584 492.0546917744903 L 354.3413996772396 490.17860804558404 L 344.8102469258151 488.2229464684003 L 335.36004254881175 486.193642234113 L 325.9923554283991 484.0925704089791 L 316.7098050063493 481.92056821364235 L 307.5151832030743 479.67831105658814 L 298.41127464386005 477.36647871480153 L 289.4008371489283 474.9857714824981 L 280.4866030084677 472.53690862223675 L 271.671333549747 470.02059215138587 L 262.95826538962666 467.4372310259525 L 254.35316719147949 464.78574486025275 L 245.8708832112411 462.0599944541144 L 237.55137046078943 459.240616678788 L 229.4919153060376 456.2798154363146 L 221.90193683917067 453.0776269412215 L 215.18253109757939 449.4509782959795 L 210.0222117604736 445.1020537078027 L 207.48086392337146 439.6002270454602 L 209.00654733667747 432.40062042693376 L 216.30544058698092 422.9265519788028 L 230.99330677338907 410.73116468042093 L 254.03863971649665 395.7134258976716 L 285.17106105797376 378.3022777759609 L 322.5795367906735 359.4855947486074 L 363.182338706605 340.6105580398709 L 403.4382152372675 323.019384258315 L 440.30243451804216 307.70185870116126 L 471.85397941749613 295.12859653193345 L 497.39213969113126 285.2960597645344 L 517.1372888852699 277.8949841642972 L 531.8046840084239 272.4907235494842 L 542.2483956681814 268.651362018455 L 549.2413651625714 266.01334800841187 L 553.3713169976425 264.3021122199435 L 555.0054945395993 263.3291687447198 L 554.2835573518297 262.980978877031 L 551.113294369717 263.2075655594583 L 545.1576772666306 264.0135909567681 L 535.8135852099795 265.4511622348191 L 522.1958108607033 267.61094547671945 L 503.1583258943152 270.60556724037536 L 477.40702800906524 274.53737560948963 L 443.7702041336138 279.44421266084174 L 401.6613169771812 285.2266495340884 L 351.6557923112709 291.58046650193575 L 295.9263786055771 297.97959894226193 L 238.17874293077548 303.7522467789498 L 182.89563732436264 308.2464655770819 L 134.13128040970432 311.0143205808429 L 94.45214553653504 311.91834951947595 L 64.5335372049648 311.11342679669434 L 43.470944789840395 308.9364215117636 L 29.474964529931736 305.77594265537437 L 20.55451849895692 301.97775506663237 L 14.966313038850418 297.8020313893556 L 11.403660299908047 293.42068857733113 L 9.000859543291154 288.93517323604357 L 7.24569402891111 284.3992704143928 L 5.868292146736775 279.8386639785337 L 4.743809263520771 275.26454158763937 L 3.822864935478779 270.6816299733479 L 3.0895016005115905 266.0922358030084 L 2.5398545533687127 261.4979388155539 L 2.1733787451462367 256.90015681958965 L 1.9901144640998953 252.30028454409464 L 1.9901144640998953 247.6997154559052 L 2.1733787451462367 243.09984318041018 L 2.5398545533687127 238.5020611844458 L 3.0895016005115905 233.9077641969913 L 3.822864935478779 229.31837002665185 L 4.743809263520771 224.7354584123605 L 5.868292146736775 220.16133602146613 L 7.24569402891111 215.60072958560707 L 9.000859543291222 211.06482676395618 L 11.403660299908113 206.57931142266864 L 14.966313038850487 202.19796861064418 L 20.554518498957325 198.0222449333675 L 29.47496452993221 194.22405734462552 L 43.47094478984081 191.06357848823623 L 64.53353720496567 188.88657320330563 L 94.45214553653665 188.08165048052396 L 134.13128040970673 188.98567941915724 L 182.89563732436372 191.75353442291814 L 238.17874293077685 196.24775322105023 L 295.92637860557846 202.02040105773818 L 351.6557923112722 208.41953349806434 L 401.66131697718345 214.77335046591188 L 443.7702041336155 220.55578733915846 L 477.4070280090667 225.4626243905105 L 503.1583258943159 229.39443275962464 L 522.1958108607038 232.3890545232805 L 535.8135852099798 234.5488377651809 L 545.1576772666308 235.98640904323182 L 551.1132943697172 236.7924344405416 L 554.2835573518298 237.0190211229689 L 555.0054945395993 236.67083125528006 L 553.3713169976423 235.69788778005633 L 549.2413651625711 233.98665199158796 L 542.2483956681812 231.3486379815448 L 531.8046840084234 227.50927645051547 L 517.1372888852692 222.10501583570243 L 497.39213969113064 214.70394023546532 L 471.8539794174953 204.87140346806615 L 440.30243451804125 192.29814129883826 L 403.4382152372666 176.9806157416846 L 363.1823387066028 159.38944196012807 L 322.5795367906714 140.5144052513915 L 285.17106105797205 121.69772222403815 L 254.03863971649574 104.28657410232786 L 230.99330677338824 89.2688353195786 L 216.30544058698052 77.07344802119687 L 209.00654733667733 67.59937957306595 L 207.48086392337146 60.39977295453944 L 210.02221176047382 54.89794629219702 L 215.18253109757944 50.549021704020404 L 221.90193683917096 46.92237305877827 L 229.49191530603767 43.720184563685315 L 237.55137046078977 40.759383321211814 L 245.87088321124125 37.940005545885434 L 254.3531671914798 35.21425513974712 L 262.95826538962683 32.5627689740474 L 271.67133354974715 29.97940784861398 L 280.486603008468 27.463091377763025 L 289.40083714892836 25.01422851750177 L 298.4112746438604 22.633521285198228 L 307.51518320307434 20.32168894341175 L 316.7098050063496 18.07943178635745 L 325.992355428399 15.907429591020856 L 335.36004254881186 13.806357765886837 L 344.8102469258155 11.777053531599526 L 354.3413996772398 9.821391954415889 L 363.9557657705843 7.94530822550951 L 373.6659446784204 6.1665867340441025 L 383.5068608566468 4.531021299563341 L 393.55374666567815 3.140520023934638 L 403.94375299494243 2.1946561461539034 L 414.89433617490414 2.0418683044098023 L 426.7059962695726 3.226854174860597 L 439.73210691879814 6.506739918390139 L 454.29902635365175 12.79479676685442 L 470.57321734481314 22.990260694097547 L 488.40498957841334 37.687969738947956 L 507.22179446773595 56.84332079062465 L 526.0615818664908 79.5598642765165 L 543.7846880134317 104.17445897123115 L 559.3897012854493 128.6698205762028 L 572.2751288462873 151.2274004811354 L 582.3225270657974 170.6406265565643 L 589.7998121678952 186.42798303999288 L 595.1804878113583 198.68860284502554 L 598.9799291904106 207.85309554544688 L 601.6566750165135 214.46043489576098 L 603.5763558574145 219.01469399688744 L 605.0149996252737 221.91634941630278 L 606.1798796962 223.4407940882554 L 607.2350067061393 223.7382583898164 L 608.3262179656535 222.83845926196759 L 609.6053773894769 220.6518991194474 L 611.2549168071262 216.96633101936425 L 613.5133957977723 211.44297819633715 L 616.6997199960172 203.62462121296932 L 621.2274244188668 192.97703411431593 L 627.5914417938712 178.99214721083735 L 636.3030186280608 161.3733736545518 L 647.75625843231 140.28347195149667 L 662.0459954414245 116.56150145291815 L 678.8146224040111 91.75418438457218 L 697.2374899862447 67.84589924577077 L 716.203992773296 46.74373921097077 L 734.6271224409022 29.760550766152775 L 751.7239786066308 17.355754913010752 L 767.1399501282706 9.215325405304844 L 780.9020239498102 4.550155165373153 L 793.2758901054445 2.4246062651582427 L 804.6149227538723 1.9901144640998953 L 815.2526160947644 2.594344212699305 L 825.4492216102288 3.795526169034714 L 835.3803637937873 5.326278218252921 L 845.1495113997223 7.0418352877457036 L 854.8091676400051 8.872707973148017 L 864.3812075909547 10.789801558236558 L 873.8719416623231 12.782661694997673 L 883.2811843718011 14.847983320754413 L 892.6066496848279 16.984607037446093 L 901.8455853729325 19.191820517469484 L 910.9951970146458 21.468951494367765 L 920.0527130284182 23.815310120580737 L 929.0153893122475 26.230185875811866 L 937.8804958356558 28.712857248851748 L 946.6451457739413 31.262700710755745 L 955.3052823475546 33.87979832446744 L 963.8518680573783 36.567085409346966 L 972.260350739261 39.335905734320995 L 980.4674221070295 42.21741729676692 L 988.3281630584238 45.282003831462816 L 995.5486527078704 48.667040925722716 L 1001.596265861074 52.609426706964435 L 1005.6047471619313 57.47277861956729 L 1006.3150781432621 63.7505483918258 L 1002.1214010798518 72.01872723319205 L 991.3043143584654 82.81394854278497 L 972.4936035400261 96.43790833804817 L 945.2758742988225 112.74282082889636 L 910.6857701198992 131.00998721026164 L 871.2429114920503 150.0332945377044 L 830.3814739584291 168.4187142396253 L 791.5025517554882 184.96553806552433 L 757.1344546891805 198.93702443879175 L 728.5693679840945 210.11581956892064 L 705.9959827133977 218.682356639513 L 688.8945822746216 225.02864396955303 L 676.444297877871 229.59984064685827 L 667.8123987298302 232.7985323303957 L 662.3109580327435 234.94443588616602 L 659.4606217887065 236.26793655677312 L 659.0076426633229 236.91852490727683 L 660.9273464290457 236.97667278816778 L 665.4320684699766 236.4640802315695 L 672.9890503324286 235.35146820393524 L 684.3417788813964 233.5660282081687 L 700.5127258698767 231.00325630935785 L 722.7444054273742 227.55034747180713 L 752.3156065420902 223.12899711734707 L 790.1742153629576 217.76038000530585 L 836.3971202014517 211.63981232287605 L 889.6415519995162 205.18544910403276 L 946.9172285828172 199.01223793067757 L 1003.9959667266457 193.8062333846563 L 1056.4522047931894 190.1375498711331 L 1100.8766755184608 188.30452629264997 L 1135.6472843388024 188.28888751716116 L 1160.951728221744 189.82800418847395 L 1178.2309275263488 192.54424170051584 L 1189.4484981842356 196.06188270078567 L 1196.5104164260742 200.0755740723644 L 1200.9514574786997 204.3706594246474 L 1203.8506458008837 208.81326990602062 L 1205.8833062758406 213.32855394469337 L 1207.426899925077 217.87886582365917 L 1208.6682370623294 222.44709204633523 L 1209.6875687968547 227.02598870421926 L 1210.5137986516252 231.6123626640658 L 1211.1551375688186 236.20438961408138 L 1211.613193683188 240.80060381333308 L 1211.8880730347787 245.39960511823529 L 1211.9797086368364 249.99999999999994 Z " style="stroke:#9f9f9f;stroke-width:3.9802289281997907;stroke-opacity:1;stroke-linecap:round;stroke-linejoin:round;fill:url(#linear);fill-rule:nonzero;"/>
</svg>